%TF.GenerationSoftware,KiCad,Pcbnew,8.0.3*%
%TF.CreationDate,2024-06-06T10:46:03+01:00*%
%TF.ProjectId,hexpansion,68657870-616e-4736-996f-6e2e6b696361,rev?*%
%TF.SameCoordinates,Original*%
%TF.FileFunction,Legend,Bot*%
%TF.FilePolarity,Positive*%
%FSLAX46Y46*%
G04 Gerber Fmt 4.6, Leading zero omitted, Abs format (unit mm)*
G04 Created by KiCad (PCBNEW 8.0.3) date 2024-06-06 10:46:03*
%MOMM*%
%LPD*%
G01*
G04 APERTURE LIST*
%ADD10C,0.000000*%
%ADD11C,0.250000*%
%ADD12C,0.200000*%
%ADD13C,0.350000*%
G04 APERTURE END LIST*
D10*
G36*
X110346526Y-100219142D02*
G01*
X110384328Y-100219949D01*
X110419393Y-100221113D01*
X110451880Y-100222654D01*
X110481948Y-100224591D01*
X110509755Y-100226942D01*
X110535459Y-100229729D01*
X110559220Y-100232969D01*
X110581196Y-100236682D01*
X110601545Y-100240888D01*
X110620427Y-100245606D01*
X110637998Y-100250855D01*
X110654419Y-100256654D01*
X110669848Y-100263024D01*
X110684442Y-100269983D01*
X110704006Y-100281073D01*
X110723659Y-100294363D01*
X110743294Y-100309708D01*
X110762804Y-100326962D01*
X110782084Y-100345980D01*
X110801026Y-100366615D01*
X110819524Y-100388722D01*
X110837471Y-100412155D01*
X110854760Y-100436769D01*
X110871286Y-100462417D01*
X110886940Y-100488955D01*
X110901618Y-100516237D01*
X110915211Y-100544116D01*
X110927613Y-100572447D01*
X110938718Y-100601085D01*
X110948419Y-100629884D01*
X110954202Y-100648175D01*
X110959836Y-100665239D01*
X110965191Y-100680702D01*
X110970137Y-100694191D01*
X110972415Y-100700079D01*
X110974543Y-100705333D01*
X110976503Y-100709906D01*
X110978280Y-100713752D01*
X110979857Y-100716825D01*
X110981217Y-100719077D01*
X110981811Y-100719881D01*
X110982345Y-100720462D01*
X110982817Y-100720815D01*
X110983225Y-100720933D01*
X110984083Y-100720591D01*
X110985291Y-100719587D01*
X110986828Y-100717955D01*
X110988671Y-100715729D01*
X110993187Y-100709630D01*
X110998663Y-100701560D01*
X111004921Y-100691790D01*
X111011785Y-100680592D01*
X111019077Y-100668236D01*
X111026621Y-100654992D01*
X111041259Y-100630520D01*
X111057393Y-100606724D01*
X111074948Y-100583657D01*
X111093852Y-100561373D01*
X111114034Y-100539929D01*
X111135421Y-100519377D01*
X111157940Y-100499772D01*
X111181518Y-100481169D01*
X111206085Y-100463622D01*
X111231567Y-100447185D01*
X111257891Y-100431913D01*
X111284986Y-100417860D01*
X111312779Y-100405081D01*
X111341198Y-100393630D01*
X111370169Y-100383561D01*
X111399622Y-100374929D01*
X111416666Y-100370924D01*
X111435567Y-100367445D01*
X111456055Y-100364491D01*
X111477865Y-100362064D01*
X111500728Y-100360163D01*
X111524378Y-100358791D01*
X111548546Y-100357946D01*
X111572966Y-100357630D01*
X111597369Y-100357843D01*
X111621489Y-100358586D01*
X111645058Y-100359859D01*
X111667808Y-100361664D01*
X111689473Y-100363999D01*
X111709785Y-100366867D01*
X111728476Y-100370267D01*
X111745279Y-100374200D01*
X111782367Y-100385531D01*
X111818192Y-100399408D01*
X111852701Y-100415773D01*
X111885841Y-100434569D01*
X111917561Y-100455737D01*
X111947808Y-100479220D01*
X111976529Y-100504959D01*
X112003673Y-100532898D01*
X112029188Y-100562978D01*
X112053020Y-100595142D01*
X112075117Y-100629330D01*
X112095428Y-100665487D01*
X112113899Y-100703553D01*
X112130479Y-100743472D01*
X112145115Y-100785185D01*
X112157755Y-100828634D01*
X112169282Y-100881363D01*
X112178768Y-100945751D01*
X112186370Y-101025186D01*
X112192247Y-101123056D01*
X112196557Y-101242750D01*
X112199456Y-101387655D01*
X112201654Y-101766652D01*
X112201807Y-102341317D01*
X111715402Y-102341317D01*
X110844110Y-102341317D01*
X110671671Y-102341318D01*
X109486154Y-102341321D01*
X109492123Y-101663022D01*
X109974344Y-101663022D01*
X110671671Y-101663022D01*
X110668062Y-101475080D01*
X111134287Y-101475080D01*
X111134287Y-101663022D01*
X111715402Y-101663022D01*
X111708399Y-101465185D01*
X111706725Y-101424476D01*
X111704609Y-101384627D01*
X111702131Y-101346642D01*
X111699375Y-101311529D01*
X111696422Y-101280292D01*
X111693355Y-101253939D01*
X111690255Y-101233474D01*
X111688718Y-101225764D01*
X111687204Y-101219903D01*
X111680286Y-101200211D01*
X111671755Y-101181479D01*
X111661679Y-101163753D01*
X111650126Y-101147077D01*
X111637165Y-101131497D01*
X111622864Y-101117057D01*
X111607292Y-101103804D01*
X111590517Y-101091781D01*
X111572608Y-101081035D01*
X111553632Y-101071611D01*
X111533660Y-101063553D01*
X111512758Y-101056906D01*
X111490995Y-101051716D01*
X111468440Y-101048028D01*
X111445162Y-101045888D01*
X111421228Y-101045339D01*
X111397049Y-101046261D01*
X111385352Y-101047220D01*
X111373916Y-101048512D01*
X111362741Y-101050136D01*
X111351827Y-101052092D01*
X111341173Y-101054381D01*
X111330781Y-101057003D01*
X111320649Y-101059957D01*
X111310778Y-101063244D01*
X111301167Y-101066864D01*
X111291817Y-101070817D01*
X111282726Y-101075103D01*
X111273896Y-101079722D01*
X111265326Y-101084674D01*
X111257015Y-101089959D01*
X111248964Y-101095578D01*
X111241173Y-101101530D01*
X111233641Y-101107815D01*
X111226368Y-101114434D01*
X111219355Y-101121386D01*
X111212601Y-101128672D01*
X111206105Y-101136292D01*
X111199869Y-101144245D01*
X111193891Y-101152532D01*
X111188172Y-101161153D01*
X111182711Y-101170108D01*
X111177509Y-101179397D01*
X111172565Y-101189021D01*
X111167879Y-101198978D01*
X111163451Y-101209270D01*
X111159281Y-101219896D01*
X111159494Y-101219896D01*
X111152322Y-101240566D01*
X111146608Y-101261390D01*
X111144249Y-101272338D01*
X111142198Y-101283897D01*
X111138937Y-101309611D01*
X111136670Y-101340059D01*
X111135243Y-101376769D01*
X111134500Y-101421267D01*
X111134287Y-101475080D01*
X110668062Y-101475080D01*
X110666666Y-101402383D01*
X110664310Y-101307990D01*
X110662848Y-101268034D01*
X110661093Y-101232352D01*
X110658967Y-101200528D01*
X110656392Y-101172146D01*
X110653289Y-101146791D01*
X110649582Y-101124048D01*
X110647477Y-101113526D01*
X110645191Y-101103501D01*
X110642715Y-101093921D01*
X110640039Y-101084734D01*
X110637153Y-101075889D01*
X110634047Y-101067333D01*
X110630713Y-101059014D01*
X110627139Y-101050881D01*
X110619235Y-101034964D01*
X110610257Y-101019165D01*
X110600128Y-101003069D01*
X110588770Y-100986261D01*
X110579656Y-100973899D01*
X110569944Y-100962270D01*
X110559629Y-100951371D01*
X110548704Y-100941198D01*
X110537163Y-100931748D01*
X110525001Y-100923018D01*
X110512210Y-100915004D01*
X110498785Y-100907704D01*
X110484719Y-100901114D01*
X110470007Y-100895231D01*
X110454642Y-100890051D01*
X110438618Y-100885571D01*
X110421928Y-100881788D01*
X110404567Y-100878699D01*
X110386529Y-100876301D01*
X110367807Y-100874589D01*
X110350025Y-100873593D01*
X110332690Y-100873182D01*
X110315798Y-100873357D01*
X110299347Y-100874122D01*
X110283336Y-100875476D01*
X110267761Y-100877423D01*
X110252620Y-100879964D01*
X110237911Y-100883101D01*
X110223632Y-100886835D01*
X110209779Y-100891168D01*
X110196351Y-100896103D01*
X110183345Y-100901640D01*
X110170759Y-100907782D01*
X110158590Y-100914531D01*
X110146836Y-100921888D01*
X110135494Y-100929855D01*
X110124563Y-100938433D01*
X110114039Y-100947626D01*
X110103920Y-100957433D01*
X110094204Y-100967858D01*
X110084889Y-100978902D01*
X110075971Y-100990566D01*
X110067450Y-101002853D01*
X110059321Y-101015765D01*
X110051583Y-101029302D01*
X110044234Y-101043467D01*
X110037270Y-101058262D01*
X110030690Y-101073689D01*
X110024491Y-101089748D01*
X110018671Y-101106443D01*
X110008158Y-101141744D01*
X110007547Y-101141744D01*
X110004028Y-101159039D01*
X110000431Y-101184218D01*
X109996848Y-101216084D01*
X109993370Y-101253438D01*
X109987096Y-101339822D01*
X109982340Y-101433786D01*
X109974344Y-101663022D01*
X109492123Y-101663022D01*
X109492151Y-101659887D01*
X109493980Y-101448155D01*
X109495839Y-101283154D01*
X109498019Y-101157495D01*
X109499321Y-101107110D01*
X109500812Y-101063789D01*
X109502530Y-101026610D01*
X109504511Y-100994648D01*
X109506790Y-100966981D01*
X109509405Y-100942684D01*
X109512392Y-100920834D01*
X109515788Y-100900507D01*
X109519629Y-100880781D01*
X109523950Y-100860730D01*
X109536860Y-100808664D01*
X109552006Y-100758033D01*
X109569320Y-100708933D01*
X109588730Y-100661464D01*
X109610168Y-100615722D01*
X109633563Y-100571804D01*
X109658846Y-100529807D01*
X109685945Y-100489830D01*
X109714793Y-100451969D01*
X109745317Y-100416321D01*
X109777449Y-100382985D01*
X109811118Y-100352057D01*
X109846255Y-100323634D01*
X109882790Y-100297814D01*
X109901560Y-100285911D01*
X109920652Y-100274695D01*
X109940059Y-100264178D01*
X109959772Y-100254373D01*
X109984914Y-100242698D01*
X109996090Y-100237957D01*
X110006900Y-100233880D01*
X110017767Y-100230418D01*
X110029114Y-100227519D01*
X110041364Y-100225135D01*
X110054941Y-100223214D01*
X110070267Y-100221707D01*
X110087766Y-100220563D01*
X110130974Y-100219165D01*
X110187950Y-100218618D01*
X110262079Y-100218522D01*
X110346526Y-100219142D01*
G37*
G36*
X111721384Y-102532007D02*
G01*
X111758497Y-102569875D01*
X111794190Y-102609365D01*
X111828419Y-102650392D01*
X111861141Y-102692875D01*
X111892311Y-102736731D01*
X111921887Y-102781879D01*
X111949823Y-102828234D01*
X111976076Y-102875716D01*
X112000603Y-102924240D01*
X112023359Y-102973726D01*
X112044301Y-103024091D01*
X112063385Y-103075252D01*
X112080567Y-103127126D01*
X112095803Y-103179631D01*
X112109050Y-103232686D01*
X112120264Y-103286207D01*
X112124966Y-103314490D01*
X112128987Y-103345377D01*
X112132328Y-103378495D01*
X112134994Y-103413470D01*
X112138307Y-103487503D01*
X112138950Y-103564492D01*
X112136944Y-103641454D01*
X112132312Y-103715408D01*
X112129019Y-103750325D01*
X112125077Y-103783371D01*
X112120489Y-103814173D01*
X112115259Y-103842359D01*
X112097995Y-103915221D01*
X112076784Y-103986715D01*
X112051758Y-104056662D01*
X112023048Y-104124889D01*
X111990787Y-104191218D01*
X111955106Y-104255473D01*
X111916138Y-104317477D01*
X111874014Y-104377056D01*
X111828866Y-104434032D01*
X111780827Y-104488230D01*
X111730027Y-104539473D01*
X111676600Y-104587584D01*
X111620676Y-104632389D01*
X111562389Y-104673710D01*
X111501869Y-104711372D01*
X111439249Y-104745199D01*
X111375701Y-104774254D01*
X111308898Y-104799573D01*
X111239289Y-104821150D01*
X111167321Y-104838979D01*
X111093440Y-104853056D01*
X111018094Y-104863375D01*
X110941730Y-104869930D01*
X110864796Y-104872718D01*
X110787737Y-104871731D01*
X110711003Y-104866966D01*
X110635039Y-104858417D01*
X110560293Y-104846079D01*
X110487213Y-104829946D01*
X110416245Y-104810014D01*
X110347836Y-104786277D01*
X110282434Y-104758729D01*
X110215139Y-104725111D01*
X110150496Y-104687727D01*
X110088609Y-104646711D01*
X110029581Y-104602199D01*
X109973516Y-104554325D01*
X109920517Y-104503225D01*
X109870688Y-104449033D01*
X109824131Y-104391884D01*
X109780950Y-104331914D01*
X109741249Y-104269257D01*
X109705131Y-104204047D01*
X109672700Y-104136421D01*
X109644058Y-104066513D01*
X109619309Y-103994458D01*
X109598556Y-103920390D01*
X109581903Y-103844446D01*
X109582147Y-103844446D01*
X109577628Y-103815555D01*
X109573960Y-103781637D01*
X109569098Y-103701620D01*
X109567400Y-103610206D01*
X109568701Y-103513202D01*
X109572838Y-103416420D01*
X109579650Y-103325669D01*
X109588972Y-103246759D01*
X109594523Y-103213559D01*
X109600641Y-103185499D01*
X109611738Y-103144897D01*
X109624478Y-103104199D01*
X109638818Y-103063485D01*
X109654711Y-103022833D01*
X109672113Y-102982324D01*
X109690978Y-102942038D01*
X109711262Y-102902052D01*
X109732920Y-102862449D01*
X109755905Y-102823305D01*
X109780174Y-102784702D01*
X109805680Y-102746719D01*
X109832380Y-102709436D01*
X109860227Y-102672931D01*
X109889177Y-102637285D01*
X109919185Y-102602577D01*
X109950205Y-102568887D01*
X110035303Y-102479299D01*
X110195917Y-102637311D01*
X110356531Y-102795324D01*
X110295832Y-102866643D01*
X110256798Y-102913473D01*
X110221179Y-102958350D01*
X110188850Y-103001570D01*
X110159687Y-103043429D01*
X110133568Y-103084221D01*
X110110369Y-103124244D01*
X110089966Y-103163792D01*
X110072237Y-103203162D01*
X110057058Y-103242649D01*
X110044305Y-103282548D01*
X110033855Y-103323156D01*
X110025585Y-103364769D01*
X110019371Y-103407681D01*
X110015091Y-103452189D01*
X110012620Y-103498588D01*
X110011835Y-103547174D01*
X110012105Y-103578565D01*
X110012908Y-103608261D01*
X110014290Y-103636468D01*
X110016298Y-103663392D01*
X110018980Y-103689241D01*
X110022383Y-103714220D01*
X110026554Y-103738538D01*
X110031540Y-103762399D01*
X110037388Y-103786012D01*
X110044147Y-103809582D01*
X110051861Y-103833317D01*
X110060580Y-103857422D01*
X110070350Y-103882105D01*
X110081219Y-103907573D01*
X110093233Y-103934031D01*
X110106439Y-103961686D01*
X110114045Y-103976996D01*
X110121539Y-103991487D01*
X110129003Y-104005271D01*
X110136519Y-104018458D01*
X110144167Y-104031158D01*
X110152029Y-104043482D01*
X110160186Y-104055539D01*
X110168718Y-104067441D01*
X110177708Y-104079297D01*
X110187236Y-104091217D01*
X110197383Y-104103312D01*
X110208230Y-104115693D01*
X110219860Y-104128469D01*
X110232351Y-104141751D01*
X110260248Y-104170274D01*
X110291092Y-104199911D01*
X110322232Y-104227316D01*
X110353782Y-104252532D01*
X110385856Y-104275604D01*
X110418567Y-104296576D01*
X110452028Y-104315492D01*
X110486353Y-104332397D01*
X110521656Y-104347335D01*
X110558050Y-104360349D01*
X110595648Y-104371485D01*
X110634564Y-104380786D01*
X110674911Y-104388297D01*
X110716803Y-104394062D01*
X110760354Y-104398125D01*
X110805676Y-104400531D01*
X110852884Y-104401323D01*
X110897611Y-104400565D01*
X110940552Y-104398256D01*
X110981842Y-104394344D01*
X111021617Y-104388773D01*
X111060010Y-104381492D01*
X111097158Y-104372446D01*
X111133194Y-104361582D01*
X111168255Y-104348848D01*
X111202474Y-104334189D01*
X111235988Y-104317552D01*
X111268931Y-104298884D01*
X111301438Y-104278132D01*
X111333643Y-104255242D01*
X111365683Y-104230161D01*
X111397691Y-104202835D01*
X111429804Y-104173211D01*
X111458316Y-104145047D01*
X111484920Y-104116857D01*
X111509670Y-104088528D01*
X111532623Y-104059950D01*
X111553835Y-104031011D01*
X111573361Y-104001601D01*
X111591256Y-103971607D01*
X111607578Y-103940920D01*
X111622382Y-103909427D01*
X111635722Y-103877018D01*
X111647657Y-103843580D01*
X111658240Y-103809004D01*
X111667528Y-103773178D01*
X111675577Y-103735991D01*
X111682443Y-103697331D01*
X111688181Y-103657087D01*
X111692767Y-103607569D01*
X111694170Y-103557311D01*
X111692457Y-103506506D01*
X111687696Y-103455345D01*
X111679953Y-103404020D01*
X111669296Y-103352722D01*
X111655791Y-103301644D01*
X111639507Y-103250977D01*
X111620510Y-103200913D01*
X111598868Y-103151644D01*
X111574647Y-103103361D01*
X111547914Y-103056256D01*
X111518738Y-103010522D01*
X111487184Y-102966348D01*
X111453321Y-102923929D01*
X111417215Y-102883455D01*
X111336618Y-102798013D01*
X111494898Y-102631601D01*
X111653177Y-102465188D01*
X111721384Y-102532007D01*
G37*
G36*
X110538603Y-94691804D02*
G01*
X110650122Y-94692151D01*
X110746578Y-94692812D01*
X110829366Y-94693887D01*
X110899881Y-94695477D01*
X110959518Y-94697683D01*
X110985693Y-94699049D01*
X111009672Y-94700607D01*
X111031629Y-94702369D01*
X111051739Y-94704348D01*
X111070175Y-94706556D01*
X111087113Y-94709007D01*
X111102726Y-94711713D01*
X111117189Y-94714686D01*
X111130676Y-94717939D01*
X111143362Y-94721485D01*
X111155422Y-94725336D01*
X111167029Y-94729505D01*
X111178357Y-94734004D01*
X111189582Y-94738847D01*
X111212419Y-94749611D01*
X111236933Y-94761899D01*
X111279788Y-94786626D01*
X111320066Y-94816034D01*
X111357743Y-94850056D01*
X111392792Y-94888628D01*
X111425187Y-94931681D01*
X111454901Y-94979151D01*
X111481910Y-95030970D01*
X111506185Y-95087073D01*
X111527703Y-95147393D01*
X111546436Y-95211864D01*
X111562359Y-95280419D01*
X111575445Y-95352992D01*
X111585668Y-95429517D01*
X111593003Y-95509928D01*
X111597423Y-95594158D01*
X111598902Y-95682142D01*
X111597136Y-95761757D01*
X111592053Y-95848465D01*
X111583972Y-95939772D01*
X111573213Y-96033181D01*
X111560098Y-96126200D01*
X111544944Y-96216332D01*
X111528073Y-96301085D01*
X111509806Y-96377961D01*
X111497507Y-96425062D01*
X111008600Y-96425062D01*
X111008600Y-96395822D01*
X111008763Y-96392444D01*
X111009240Y-96388375D01*
X111011072Y-96378384D01*
X111013968Y-96366285D01*
X111017799Y-96352515D01*
X111022437Y-96337510D01*
X111027751Y-96321708D01*
X111033614Y-96305543D01*
X111039896Y-96289453D01*
X111055784Y-96249036D01*
X111070443Y-96209012D01*
X111083871Y-96169384D01*
X111096069Y-96130156D01*
X111107034Y-96091333D01*
X111116767Y-96052919D01*
X111125267Y-96014917D01*
X111132532Y-95977332D01*
X111138562Y-95940169D01*
X111143356Y-95903430D01*
X111146912Y-95867120D01*
X111149231Y-95831244D01*
X111150312Y-95795804D01*
X111150153Y-95760807D01*
X111148753Y-95726254D01*
X111146112Y-95692151D01*
X111140957Y-95646583D01*
X111134544Y-95604194D01*
X111130856Y-95584177D01*
X111126841Y-95564936D01*
X111122495Y-95546465D01*
X111117814Y-95528759D01*
X111112793Y-95511810D01*
X111107429Y-95495613D01*
X111101717Y-95480161D01*
X111095654Y-95465449D01*
X111089234Y-95451469D01*
X111082455Y-95438217D01*
X111075311Y-95425685D01*
X111067799Y-95413868D01*
X111059914Y-95402760D01*
X111051652Y-95392353D01*
X111043009Y-95382643D01*
X111033982Y-95373622D01*
X111024565Y-95365285D01*
X111014754Y-95357626D01*
X111004546Y-95350638D01*
X110993937Y-95344315D01*
X110982921Y-95338651D01*
X110971496Y-95333640D01*
X110959656Y-95329275D01*
X110947398Y-95325551D01*
X110934717Y-95322461D01*
X110921610Y-95319999D01*
X110908071Y-95318158D01*
X110894098Y-95316934D01*
X110839701Y-95313432D01*
X110823908Y-95495569D01*
X110810885Y-95633376D01*
X110804082Y-95695697D01*
X110797006Y-95754005D01*
X110789601Y-95808581D01*
X110781808Y-95859706D01*
X110773570Y-95907662D01*
X110764828Y-95952730D01*
X110755524Y-95995192D01*
X110745602Y-96035328D01*
X110735003Y-96073420D01*
X110723668Y-96109749D01*
X110711541Y-96144597D01*
X110698563Y-96178245D01*
X110684677Y-96210974D01*
X110669824Y-96243066D01*
X110646874Y-96287630D01*
X110622518Y-96328923D01*
X110596668Y-96366996D01*
X110569238Y-96401903D01*
X110540142Y-96433695D01*
X110509292Y-96462424D01*
X110476603Y-96488143D01*
X110441986Y-96510903D01*
X110405356Y-96530758D01*
X110366625Y-96547758D01*
X110325707Y-96561956D01*
X110282516Y-96573405D01*
X110236963Y-96582157D01*
X110188964Y-96588263D01*
X110138430Y-96591776D01*
X110135456Y-96591830D01*
X110085276Y-96592748D01*
X110048676Y-96592245D01*
X110016050Y-96591097D01*
X110001031Y-96590257D01*
X109986770Y-96589227D01*
X109973190Y-96587998D01*
X109960211Y-96586561D01*
X109947755Y-96584904D01*
X109935744Y-96583021D01*
X109924099Y-96580899D01*
X109912743Y-96578531D01*
X109901596Y-96575907D01*
X109890581Y-96573016D01*
X109879619Y-96569851D01*
X109868631Y-96566400D01*
X109829135Y-96551902D01*
X109790778Y-96534637D01*
X109753701Y-96514761D01*
X109718043Y-96492436D01*
X109683943Y-96467819D01*
X109651541Y-96441069D01*
X109620975Y-96412345D01*
X109592386Y-96381807D01*
X109565913Y-96349612D01*
X109541694Y-96315920D01*
X109519871Y-96280889D01*
X109500581Y-96244679D01*
X109483964Y-96207447D01*
X109470160Y-96169355D01*
X109459308Y-96130559D01*
X109451548Y-96091218D01*
X109451364Y-96091203D01*
X109449259Y-96073829D01*
X109447484Y-96052913D01*
X109446085Y-96029249D01*
X109445108Y-96003631D01*
X109444601Y-95976855D01*
X109444610Y-95949713D01*
X109445180Y-95923000D01*
X109446360Y-95897512D01*
X109448930Y-95861920D01*
X109452816Y-95826923D01*
X109458020Y-95792512D01*
X109464547Y-95758680D01*
X109472397Y-95725417D01*
X109481576Y-95692717D01*
X109492086Y-95660571D01*
X109493310Y-95657306D01*
X109880052Y-95657306D01*
X109880129Y-95672200D01*
X109880836Y-95687211D01*
X109882173Y-95702424D01*
X109884138Y-95717922D01*
X109886731Y-95733788D01*
X109889950Y-95750107D01*
X109893795Y-95766962D01*
X109898264Y-95784437D01*
X109903363Y-95801774D01*
X109909078Y-95818079D01*
X109915428Y-95833371D01*
X109922433Y-95847669D01*
X109930112Y-95860991D01*
X109938486Y-95873359D01*
X109942940Y-95879190D01*
X109947575Y-95884789D01*
X109952393Y-95890160D01*
X109957397Y-95895304D01*
X109962590Y-95900223D01*
X109967973Y-95904920D01*
X109973550Y-95909398D01*
X109979323Y-95913658D01*
X109985294Y-95917704D01*
X109991466Y-95921537D01*
X110004421Y-95928577D01*
X110018210Y-95934796D01*
X110032850Y-95940214D01*
X110048363Y-95944850D01*
X110064768Y-95948724D01*
X110079429Y-95951491D01*
X110093831Y-95953650D01*
X110107972Y-95955204D01*
X110121848Y-95956155D01*
X110135456Y-95956504D01*
X110148794Y-95956253D01*
X110161859Y-95955403D01*
X110174649Y-95953957D01*
X110187159Y-95951916D01*
X110199389Y-95949281D01*
X110211334Y-95946056D01*
X110222993Y-95942240D01*
X110234362Y-95937837D01*
X110245438Y-95932847D01*
X110256219Y-95927273D01*
X110266703Y-95921117D01*
X110276885Y-95914379D01*
X110286764Y-95907062D01*
X110296336Y-95899167D01*
X110305600Y-95890697D01*
X110314552Y-95881652D01*
X110323189Y-95872035D01*
X110331508Y-95861848D01*
X110339507Y-95851091D01*
X110347184Y-95839768D01*
X110354534Y-95827879D01*
X110361556Y-95815426D01*
X110368247Y-95802411D01*
X110374604Y-95788836D01*
X110380624Y-95774703D01*
X110386304Y-95760013D01*
X110391642Y-95744767D01*
X110396134Y-95729701D01*
X110400971Y-95710736D01*
X110411328Y-95663297D01*
X110422011Y-95606828D01*
X110432321Y-95545704D01*
X110441559Y-95484302D01*
X110449024Y-95426997D01*
X110454016Y-95378165D01*
X110455366Y-95358295D01*
X110455835Y-95342183D01*
X110455595Y-95338526D01*
X110454712Y-95335286D01*
X110452940Y-95332439D01*
X110450034Y-95329958D01*
X110445750Y-95327819D01*
X110439843Y-95325997D01*
X110432066Y-95324468D01*
X110422176Y-95323205D01*
X110395075Y-95321382D01*
X110356578Y-95320327D01*
X110304726Y-95319840D01*
X110237558Y-95319722D01*
X110019266Y-95319722D01*
X109973062Y-95386762D01*
X109968230Y-95393999D01*
X109963284Y-95401833D01*
X109953197Y-95418991D01*
X109943091Y-95437640D01*
X109933258Y-95457181D01*
X109923988Y-95477018D01*
X109915571Y-95496554D01*
X109908298Y-95515192D01*
X109905182Y-95523987D01*
X109902460Y-95532335D01*
X109902262Y-95532342D01*
X109897257Y-95549310D01*
X109892891Y-95565725D01*
X109889163Y-95581671D01*
X109886072Y-95597233D01*
X109883616Y-95612494D01*
X109881795Y-95627537D01*
X109880607Y-95642447D01*
X109880052Y-95657306D01*
X109493310Y-95657306D01*
X109503931Y-95628970D01*
X109517113Y-95597907D01*
X109531636Y-95567373D01*
X109547502Y-95537361D01*
X109564716Y-95507862D01*
X109583280Y-95478869D01*
X109603197Y-95450372D01*
X109624471Y-95422365D01*
X109647104Y-95394838D01*
X109705912Y-95325986D01*
X109603571Y-95322385D01*
X109501215Y-95318685D01*
X109501215Y-94691648D01*
X110264795Y-94691648D01*
X110538603Y-94691804D01*
G37*
G36*
X111396095Y-104992338D02*
G01*
X111431675Y-104993950D01*
X111466412Y-104996499D01*
X111500000Y-105000000D01*
X111532134Y-105004465D01*
X111562509Y-105009908D01*
X111618728Y-105023260D01*
X111672691Y-105040107D01*
X111724309Y-105060358D01*
X111773490Y-105083920D01*
X111820143Y-105110702D01*
X111864175Y-105140611D01*
X111905496Y-105173556D01*
X111944013Y-105209444D01*
X111979637Y-105248184D01*
X112012275Y-105289684D01*
X112041836Y-105333852D01*
X112068228Y-105380595D01*
X112091360Y-105429822D01*
X112111141Y-105481440D01*
X112127480Y-105535359D01*
X112140283Y-105591485D01*
X112143458Y-105619434D01*
X112146509Y-105669073D01*
X112152113Y-105827903D01*
X112156853Y-106056937D01*
X112160486Y-106345136D01*
X112166483Y-107026571D01*
X110958139Y-107026571D01*
X109501093Y-107026571D01*
X109501093Y-106499322D01*
X110958139Y-106499322D01*
X111718088Y-106492723D01*
X111715082Y-106203821D01*
X111714105Y-106132898D01*
X111712706Y-106069160D01*
X111710754Y-106012066D01*
X111708119Y-105961081D01*
X111704670Y-105915668D01*
X111702600Y-105894882D01*
X111700277Y-105875287D01*
X111697685Y-105856817D01*
X111694809Y-105839403D01*
X111691631Y-105822980D01*
X111688135Y-105807478D01*
X111684305Y-105792832D01*
X111680125Y-105778975D01*
X111675579Y-105765838D01*
X111670649Y-105753355D01*
X111665320Y-105741459D01*
X111659575Y-105730083D01*
X111653399Y-105719158D01*
X111646774Y-105708619D01*
X111639684Y-105698398D01*
X111632114Y-105688428D01*
X111624046Y-105678642D01*
X111615465Y-105668972D01*
X111606354Y-105659351D01*
X111596696Y-105649712D01*
X111575678Y-105630113D01*
X111562414Y-105618571D01*
X111549346Y-105607997D01*
X111536388Y-105598362D01*
X111523454Y-105589633D01*
X111510458Y-105581780D01*
X111497316Y-105574773D01*
X111483943Y-105568579D01*
X111470251Y-105563169D01*
X111456156Y-105558512D01*
X111441573Y-105554575D01*
X111426416Y-105551329D01*
X111410600Y-105548743D01*
X111394038Y-105546785D01*
X111376646Y-105545425D01*
X111358338Y-105544631D01*
X111339029Y-105544374D01*
X111320228Y-105544740D01*
X111301839Y-105545837D01*
X111283866Y-105547657D01*
X111266317Y-105550195D01*
X111249197Y-105553446D01*
X111232513Y-105557404D01*
X111216270Y-105562063D01*
X111200474Y-105567417D01*
X111185132Y-105573462D01*
X111170249Y-105580190D01*
X111155832Y-105587597D01*
X111141887Y-105595676D01*
X111128419Y-105604423D01*
X111115435Y-105613831D01*
X111102941Y-105623895D01*
X111090942Y-105634609D01*
X111079446Y-105645967D01*
X111068457Y-105657964D01*
X111057983Y-105670594D01*
X111048028Y-105683851D01*
X111038600Y-105697730D01*
X111029703Y-105712225D01*
X111021345Y-105727330D01*
X111013531Y-105743040D01*
X111006268Y-105759349D01*
X110999560Y-105776251D01*
X110993415Y-105793740D01*
X110987839Y-105811812D01*
X110982837Y-105830459D01*
X110978415Y-105849677D01*
X110971338Y-105889802D01*
X110971231Y-105889745D01*
X110968733Y-105912731D01*
X110966379Y-105944466D01*
X110962330Y-106028461D01*
X110959530Y-106130286D01*
X110958429Y-106238496D01*
X110958139Y-106499322D01*
X109501093Y-106499322D01*
X109501093Y-106499006D01*
X110502680Y-106499006D01*
X110509684Y-106119035D01*
X110513047Y-105964513D01*
X110515149Y-105898145D01*
X110517642Y-105838257D01*
X110520605Y-105784259D01*
X110524121Y-105735565D01*
X110528271Y-105691587D01*
X110533136Y-105651738D01*
X110538798Y-105615428D01*
X110545338Y-105582072D01*
X110552838Y-105551081D01*
X110561379Y-105521868D01*
X110571043Y-105493845D01*
X110581911Y-105466424D01*
X110594064Y-105439018D01*
X110607584Y-105411039D01*
X110625338Y-105377422D01*
X110644336Y-105345101D01*
X110664571Y-105314083D01*
X110686034Y-105284374D01*
X110708716Y-105255982D01*
X110732610Y-105228916D01*
X110757707Y-105203181D01*
X110783998Y-105178785D01*
X110811477Y-105155736D01*
X110840133Y-105134041D01*
X110869960Y-105113708D01*
X110900949Y-105094743D01*
X110933091Y-105077155D01*
X110966378Y-105060950D01*
X111000803Y-105046136D01*
X111036356Y-105032720D01*
X111061066Y-105024889D01*
X111088291Y-105017850D01*
X111117725Y-105011617D01*
X111149063Y-105006203D01*
X111181999Y-105001620D01*
X111216229Y-104997883D01*
X111251447Y-104995004D01*
X111287348Y-104992997D01*
X111323626Y-104991875D01*
X111359977Y-104991651D01*
X111396095Y-104992338D01*
G37*
G36*
X108904535Y-92369867D02*
G01*
X108973535Y-92943651D01*
X108997695Y-93145699D01*
X109018310Y-93311992D01*
X109033190Y-93425300D01*
X109037793Y-93456701D01*
X109040140Y-93468396D01*
X110132299Y-93072169D01*
X111520563Y-92559575D01*
X111522831Y-92559594D01*
X111524883Y-92561512D01*
X111526726Y-92565495D01*
X111528372Y-92571709D01*
X111531110Y-92591489D01*
X111533174Y-92622180D01*
X111534644Y-92665105D01*
X111535596Y-92721591D01*
X111536264Y-92880544D01*
X111536264Y-93207471D01*
X111420069Y-93243841D01*
X110834805Y-93427473D01*
X110633913Y-93490989D01*
X110485199Y-93538544D01*
X110381926Y-93572315D01*
X110345224Y-93584712D01*
X110317357Y-93594479D01*
X110297481Y-93601890D01*
X110284755Y-93607216D01*
X110278337Y-93610729D01*
X110277230Y-93611892D01*
X110277384Y-93612703D01*
X110285744Y-93616516D01*
X110306181Y-93624298D01*
X110377882Y-93649877D01*
X110481678Y-93685662D01*
X110606760Y-93727876D01*
X111231668Y-93938024D01*
X111536264Y-94041105D01*
X111536264Y-94372670D01*
X111535905Y-94501411D01*
X111534889Y-94606839D01*
X111534164Y-94647410D01*
X111533310Y-94678074D01*
X111532338Y-94697469D01*
X111531811Y-94702516D01*
X111531259Y-94704236D01*
X110554636Y-94338517D01*
X109861666Y-94078335D01*
X109560358Y-93966382D01*
X109556947Y-93966165D01*
X109551426Y-93966810D01*
X109534543Y-93970529D01*
X109510690Y-93977221D01*
X109480848Y-93986567D01*
X109445998Y-93998248D01*
X109407120Y-94011944D01*
X109365196Y-94027338D01*
X109321207Y-94044111D01*
X109104517Y-94128259D01*
X109132624Y-94425668D01*
X109180651Y-94974187D01*
X109220984Y-95521510D01*
X109253606Y-96067227D01*
X109278503Y-96610933D01*
X109295661Y-97152217D01*
X109305064Y-97690674D01*
X109306697Y-98225894D01*
X109300547Y-98757470D01*
X109270490Y-99721783D01*
X109216862Y-100720448D01*
X109140672Y-101743725D01*
X109042932Y-102781875D01*
X108924653Y-103825158D01*
X108786846Y-104863834D01*
X108630521Y-105888163D01*
X108456690Y-106888406D01*
X108431572Y-107022875D01*
X108410381Y-107133652D01*
X108395396Y-107209257D01*
X108390942Y-107230283D01*
X108388895Y-107238210D01*
X108372567Y-107243123D01*
X108332451Y-107252591D01*
X108211468Y-107278786D01*
X108087168Y-107303971D01*
X108042907Y-107312176D01*
X108020777Y-107315320D01*
X108021204Y-107315332D01*
X108020183Y-107315313D01*
X108019205Y-107315240D01*
X108018269Y-107315111D01*
X108017375Y-107314927D01*
X108016525Y-107314687D01*
X108015718Y-107314392D01*
X108014955Y-107314042D01*
X108014235Y-107313636D01*
X108013561Y-107313175D01*
X108012931Y-107312658D01*
X108012346Y-107312086D01*
X108011807Y-107311459D01*
X108011313Y-107310776D01*
X108010866Y-107310037D01*
X108010465Y-107309243D01*
X108010111Y-107308393D01*
X108009804Y-107307488D01*
X108009545Y-107306527D01*
X108009333Y-107305510D01*
X108009170Y-107304438D01*
X108008990Y-107302127D01*
X108009007Y-107299592D01*
X108009224Y-107296834D01*
X108009644Y-107293854D01*
X108010269Y-107290649D01*
X108011103Y-107287221D01*
X108109774Y-106773148D01*
X108256830Y-105977739D01*
X108414847Y-105070205D01*
X108556335Y-104186458D01*
X108681689Y-103323241D01*
X108791305Y-102477295D01*
X108885580Y-101645363D01*
X108964910Y-100824188D01*
X109029690Y-100010512D01*
X109080316Y-99201078D01*
X109107832Y-98637263D01*
X109127292Y-98107621D01*
X109138687Y-97605515D01*
X109142006Y-97124308D01*
X109137239Y-96657366D01*
X109124375Y-96198052D01*
X109103406Y-95739731D01*
X109074320Y-95275766D01*
X109049898Y-94954323D01*
X109020460Y-94595761D01*
X108994828Y-94303306D01*
X108986195Y-94214125D01*
X108981821Y-94180181D01*
X108980941Y-94180106D01*
X108978953Y-94180478D01*
X108971886Y-94182479D01*
X108961089Y-94186016D01*
X108947031Y-94190924D01*
X108911006Y-94204180D01*
X108867563Y-94220910D01*
X108823953Y-94237874D01*
X108787548Y-94251766D01*
X108762247Y-94261153D01*
X108754978Y-94263708D01*
X108751947Y-94264600D01*
X108751244Y-94257640D01*
X108750659Y-94237692D01*
X108749939Y-94164426D01*
X108749971Y-94055991D01*
X108750940Y-93923578D01*
X108753946Y-93582551D01*
X108835550Y-93552053D01*
X108851992Y-93545861D01*
X108867426Y-93539965D01*
X108893932Y-93529615D01*
X108904337Y-93525438D01*
X108912397Y-93522111D01*
X108917777Y-93519773D01*
X108919359Y-93519019D01*
X108920145Y-93518564D01*
X108918459Y-93483276D01*
X108911575Y-93389400D01*
X108886652Y-93083047D01*
X108867151Y-92851853D01*
X108859429Y-92758995D01*
X108853012Y-92679719D01*
X108847866Y-92612844D01*
X108845758Y-92583686D01*
X108843954Y-92557185D01*
X108842451Y-92533192D01*
X108841243Y-92511560D01*
X108840327Y-92492141D01*
X108839697Y-92474787D01*
X108839349Y-92459349D01*
X108839280Y-92445682D01*
X108839485Y-92433635D01*
X108839958Y-92423062D01*
X108840697Y-92413815D01*
X108841696Y-92405746D01*
X108842291Y-92402107D01*
X108842951Y-92398707D01*
X108843673Y-92395527D01*
X108844458Y-92392550D01*
X108845304Y-92389756D01*
X108846212Y-92387127D01*
X108847180Y-92384645D01*
X108848209Y-92382290D01*
X108850444Y-92377893D01*
X108852914Y-92373786D01*
X108855613Y-92369822D01*
X108858538Y-92365853D01*
X108865045Y-92357309D01*
X108896540Y-92315328D01*
X108904535Y-92369867D01*
G37*
G36*
X112200006Y-96794233D02*
G01*
X112200960Y-96925919D01*
X112200884Y-97034566D01*
X112200488Y-97076726D01*
X112199869Y-97108895D01*
X112199038Y-97129666D01*
X112198547Y-97135336D01*
X112198007Y-97137628D01*
X111938375Y-97196472D01*
X111321665Y-97330449D01*
X110981515Y-97404085D01*
X110699209Y-97465989D01*
X110504136Y-97509647D01*
X110448496Y-97522599D01*
X110425684Y-97528547D01*
X110422709Y-97530089D01*
X110420906Y-97531713D01*
X110420458Y-97532562D01*
X110420321Y-97533438D01*
X110420500Y-97534343D01*
X110421002Y-97535279D01*
X110422995Y-97537255D01*
X110426348Y-97539384D01*
X110431107Y-97541682D01*
X110437321Y-97544167D01*
X110454297Y-97549769D01*
X110477652Y-97556329D01*
X110507764Y-97563988D01*
X110545008Y-97572885D01*
X111442987Y-97785459D01*
X112196649Y-97964319D01*
X112199655Y-98303216D01*
X112202661Y-98642114D01*
X111305277Y-98867997D01*
X110957410Y-98956196D01*
X110673536Y-99029366D01*
X110482766Y-99079897D01*
X110431391Y-99094296D01*
X110414209Y-99100183D01*
X110486704Y-99117018D01*
X110679453Y-99158202D01*
X111308344Y-99288850D01*
X112196176Y-99471219D01*
X112199182Y-99825197D01*
X112202188Y-100179174D01*
X112066965Y-100143316D01*
X110732172Y-99804662D01*
X109880503Y-99589202D01*
X109516901Y-99496316D01*
X109518381Y-99496312D01*
X109516276Y-99494508D01*
X109514346Y-99490582D01*
X109510990Y-99475677D01*
X109508270Y-99450222D01*
X109506142Y-99412841D01*
X109504562Y-99362159D01*
X109503487Y-99296799D01*
X109502680Y-99116544D01*
X109502680Y-98742326D01*
X110331705Y-98535337D01*
X110653592Y-98454458D01*
X110917173Y-98387258D01*
X111095250Y-98340747D01*
X111143725Y-98327441D01*
X111160623Y-98321935D01*
X111095420Y-98302591D01*
X110917969Y-98254664D01*
X110334726Y-98101938D01*
X109508951Y-97888357D01*
X109508951Y-97136556D01*
X110852976Y-96796365D01*
X112197000Y-96456178D01*
X112200006Y-96794233D01*
G37*
D11*
X103290809Y-96435901D02*
X103338428Y-96578758D01*
X103338428Y-96578758D02*
X103386047Y-96626377D01*
X103386047Y-96626377D02*
X103481285Y-96673996D01*
X103481285Y-96673996D02*
X103624142Y-96673996D01*
X103624142Y-96673996D02*
X103719380Y-96626377D01*
X103719380Y-96626377D02*
X103767000Y-96578758D01*
X103767000Y-96578758D02*
X103814619Y-96483520D01*
X103814619Y-96483520D02*
X103814619Y-96102568D01*
X103814619Y-96102568D02*
X102814619Y-96102568D01*
X102814619Y-96102568D02*
X102814619Y-96435901D01*
X102814619Y-96435901D02*
X102862238Y-96531139D01*
X102862238Y-96531139D02*
X102909857Y-96578758D01*
X102909857Y-96578758D02*
X103005095Y-96626377D01*
X103005095Y-96626377D02*
X103100333Y-96626377D01*
X103100333Y-96626377D02*
X103195571Y-96578758D01*
X103195571Y-96578758D02*
X103243190Y-96531139D01*
X103243190Y-96531139D02*
X103290809Y-96435901D01*
X103290809Y-96435901D02*
X103290809Y-96102568D01*
X102814619Y-97293044D02*
X102814619Y-97483520D01*
X102814619Y-97483520D02*
X102862238Y-97578758D01*
X102862238Y-97578758D02*
X102957476Y-97673996D01*
X102957476Y-97673996D02*
X103147952Y-97721615D01*
X103147952Y-97721615D02*
X103481285Y-97721615D01*
X103481285Y-97721615D02*
X103671761Y-97673996D01*
X103671761Y-97673996D02*
X103767000Y-97578758D01*
X103767000Y-97578758D02*
X103814619Y-97483520D01*
X103814619Y-97483520D02*
X103814619Y-97293044D01*
X103814619Y-97293044D02*
X103767000Y-97197806D01*
X103767000Y-97197806D02*
X103671761Y-97102568D01*
X103671761Y-97102568D02*
X103481285Y-97054949D01*
X103481285Y-97054949D02*
X103147952Y-97054949D01*
X103147952Y-97054949D02*
X102957476Y-97102568D01*
X102957476Y-97102568D02*
X102862238Y-97197806D01*
X102862238Y-97197806D02*
X102814619Y-97293044D01*
X102814619Y-98007330D02*
X102814619Y-98578758D01*
X103814619Y-98293044D02*
X102814619Y-98293044D01*
X102814619Y-98769235D02*
X102814619Y-99340663D01*
X103814619Y-99054949D02*
X102814619Y-99054949D01*
X102814619Y-99864473D02*
X102814619Y-100054949D01*
X102814619Y-100054949D02*
X102862238Y-100150187D01*
X102862238Y-100150187D02*
X102957476Y-100245425D01*
X102957476Y-100245425D02*
X103147952Y-100293044D01*
X103147952Y-100293044D02*
X103481285Y-100293044D01*
X103481285Y-100293044D02*
X103671761Y-100245425D01*
X103671761Y-100245425D02*
X103767000Y-100150187D01*
X103767000Y-100150187D02*
X103814619Y-100054949D01*
X103814619Y-100054949D02*
X103814619Y-99864473D01*
X103814619Y-99864473D02*
X103767000Y-99769235D01*
X103767000Y-99769235D02*
X103671761Y-99673997D01*
X103671761Y-99673997D02*
X103481285Y-99626378D01*
X103481285Y-99626378D02*
X103147952Y-99626378D01*
X103147952Y-99626378D02*
X102957476Y-99673997D01*
X102957476Y-99673997D02*
X102862238Y-99769235D01*
X102862238Y-99769235D02*
X102814619Y-99864473D01*
X103814619Y-100721616D02*
X102814619Y-100721616D01*
X102814619Y-100721616D02*
X103528904Y-101054949D01*
X103528904Y-101054949D02*
X102814619Y-101388282D01*
X102814619Y-101388282D02*
X103814619Y-101388282D01*
X103719380Y-101864473D02*
X103767000Y-101912092D01*
X103767000Y-101912092D02*
X103814619Y-101864473D01*
X103814619Y-101864473D02*
X103767000Y-101816854D01*
X103767000Y-101816854D02*
X103719380Y-101864473D01*
X103719380Y-101864473D02*
X103814619Y-101864473D01*
X103433666Y-101864473D02*
X102862238Y-101816854D01*
X102862238Y-101816854D02*
X102814619Y-101864473D01*
X102814619Y-101864473D02*
X102862238Y-101912092D01*
X102862238Y-101912092D02*
X103433666Y-101864473D01*
X103433666Y-101864473D02*
X102814619Y-101864473D01*
D12*
X103341695Y-103791101D02*
X103341695Y-103333958D01*
X103341695Y-103562530D02*
X102541695Y-103562530D01*
X102541695Y-103562530D02*
X102655980Y-103486339D01*
X102655980Y-103486339D02*
X102732171Y-103410149D01*
X102732171Y-103410149D02*
X102770266Y-103333958D01*
D13*
X140792200Y-104800001D03*
X140792200Y-95199999D03*
X110850000Y-87500000D03*
X111333274Y-86333274D03*
X111333274Y-88666726D03*
X112500000Y-85850000D03*
X112500000Y-87500000D03*
X112500000Y-89150000D03*
X113666726Y-86333274D03*
X113666726Y-88666726D03*
X114150000Y-87500000D03*
X124230000Y-111410000D03*
X121690000Y-111410000D03*
X124230000Y-108870000D03*
X121690000Y-108870000D03*
X124230000Y-106330000D03*
X121690000Y-106330000D03*
X124230000Y-103790000D03*
X121690000Y-103790000D03*
X124230000Y-101250000D03*
X121690000Y-101250000D03*
X124230000Y-98710000D03*
X121690000Y-98710000D03*
X124230000Y-96170000D03*
X121690000Y-96170000D03*
X124230000Y-93630000D03*
X121690000Y-93630000D03*
X124230000Y-91090000D03*
X121690000Y-91090000D03*
X124230000Y-88550000D03*
X121690000Y-88550000D03*
X110850000Y-112500000D03*
X111333274Y-111333274D03*
X111333274Y-113666726D03*
X112500000Y-110850000D03*
X112500000Y-112500000D03*
X112500000Y-114150000D03*
X113666726Y-111333274D03*
X113666726Y-113666726D03*
X114150000Y-112500000D03*
M02*
