M48
METRIC,TZ
T1C0.400
T2C0.400
T3C1.000
T4C2.200
%
G90
G05
T1
X106250Y-94250
X106250Y-105500
X127830Y-93632
X127878Y-105491
X128854Y-107798
X130505Y-98200
X131674Y-97400
X132486Y-96622
X132944Y-102235
X133858Y-102972
X134163Y-106045
X134950Y-93497
X139446Y-101448
X140843Y-100178
X142494Y-98527
X144907Y-94513
X144932Y-91313
T2
X110850Y-87500
X110850Y-112500
X111333Y-86333
X111333Y-88667
X111333Y-111333
X111333Y-113667
X112500Y-85850
X112500Y-89150
X112500Y-110850
X112500Y-114150
X113667Y-86333
X113667Y-88667
X113667Y-111333
X113667Y-113667
X114150Y-87500
X114150Y-112500
T3
X121690Y-88550
X121690Y-91090
X121690Y-93630
X121690Y-96170
X121690Y-98710
X121690Y-101250
X121690Y-103790
X121690Y-106330
X121690Y-108870
X121690Y-111410
X124230Y-88550
X124230Y-91090
X124230Y-93630
X124230Y-96170
X124230Y-98710
X124230Y-101250
X124230Y-103790
X124230Y-106330
X124230Y-108870
X124230Y-111410
T4
X112500Y-87500
X112500Y-112500
M30
