%TF.GenerationSoftware,KiCad,Pcbnew,8.0.3*%
%TF.CreationDate,2024-06-06T10:46:03+01:00*%
%TF.ProjectId,hexpansion,68657870-616e-4736-996f-6e2e6b696361,rev?*%
%TF.SameCoordinates,Original*%
%TF.FileFunction,Copper,L1,Top*%
%TF.FilePolarity,Positive*%
%FSLAX46Y46*%
G04 Gerber Fmt 4.6, Leading zero omitted, Abs format (unit mm)*
G04 Created by KiCad (PCBNEW 8.0.3) date 2024-06-06 10:46:03*
%MOMM*%
%LPD*%
G01*
G04 APERTURE LIST*
G04 Aperture macros list*
%AMRoundRect*
0 Rectangle with rounded corners*
0 $1 Rounding radius*
0 $2 $3 $4 $5 $6 $7 $8 $9 X,Y pos of 4 corners*
0 Add a 4 corners polygon primitive as box body*
4,1,4,$2,$3,$4,$5,$6,$7,$8,$9,$2,$3,0*
0 Add four circle primitives for the rounded corners*
1,1,$1+$1,$2,$3*
1,1,$1+$1,$4,$5*
1,1,$1+$1,$6,$7*
1,1,$1+$1,$8,$9*
0 Add four rect primitives between the rounded corners*
20,1,$1+$1,$2,$3,$4,$5,0*
20,1,$1+$1,$4,$5,$6,$7,0*
20,1,$1+$1,$6,$7,$8,$9,0*
20,1,$1+$1,$8,$9,$2,$3,0*%
%AMFreePoly0*
4,1,19,0.500000,-0.750000,0.000000,-0.750000,0.000000,-0.744911,-0.071157,-0.744911,-0.207708,-0.704816,-0.327430,-0.627875,-0.420627,-0.520320,-0.479746,-0.390866,-0.500000,-0.250000,-0.500000,0.250000,-0.479746,0.390866,-0.420627,0.520320,-0.327430,0.627875,-0.207708,0.704816,-0.071157,0.744911,0.000000,0.744911,0.000000,0.750000,0.500000,0.750000,0.500000,-0.750000,0.500000,-0.750000,
$1*%
%AMFreePoly1*
4,1,19,0.000000,0.744911,0.071157,0.744911,0.207708,0.704816,0.327430,0.627875,0.420627,0.520320,0.479746,0.390866,0.500000,0.250000,0.500000,-0.250000,0.479746,-0.390866,0.420627,-0.520320,0.327430,-0.627875,0.207708,-0.704816,0.071157,-0.744911,0.000000,-0.744911,0.000000,-0.750000,-0.500000,-0.750000,-0.500000,0.750000,0.000000,0.750000,0.000000,0.744911,0.000000,0.744911,
$1*%
G04 Aperture macros list end*
%TA.AperFunction,EtchedComponent*%
%ADD10C,0.000000*%
%TD*%
%TA.AperFunction,SMDPad,CuDef*%
%ADD11RoundRect,0.150000X1.600000X0.150000X-1.600000X0.150000X-1.600000X-0.150000X1.600000X-0.150000X0*%
%TD*%
%TA.AperFunction,SMDPad,CuDef*%
%ADD12RoundRect,0.150000X1.200000X0.150000X-1.200000X0.150000X-1.200000X-0.150000X1.200000X-0.150000X0*%
%TD*%
%TA.AperFunction,SMDPad,CuDef*%
%ADD13RoundRect,0.125000X0.875000X0.125000X-0.875000X0.125000X-0.875000X-0.125000X0.875000X-0.125000X0*%
%TD*%
%TA.AperFunction,SMDPad,CuDef*%
%ADD14RoundRect,0.243750X-0.456250X0.243750X-0.456250X-0.243750X0.456250X-0.243750X0.456250X0.243750X0*%
%TD*%
%TA.AperFunction,ComponentPad*%
%ADD15C,0.700000*%
%TD*%
%TA.AperFunction,ComponentPad*%
%ADD16C,4.400000*%
%TD*%
%TA.AperFunction,ComponentPad*%
%ADD17R,1.700000X1.700000*%
%TD*%
%TA.AperFunction,ComponentPad*%
%ADD18O,1.700000X1.700000*%
%TD*%
%TA.AperFunction,SMDPad,CuDef*%
%ADD19FreePoly0,90.000000*%
%TD*%
%TA.AperFunction,SMDPad,CuDef*%
%ADD20FreePoly1,90.000000*%
%TD*%
%TA.AperFunction,SMDPad,CuDef*%
%ADD21RoundRect,0.200000X0.275000X-0.200000X0.275000X0.200000X-0.275000X0.200000X-0.275000X-0.200000X0*%
%TD*%
%TA.AperFunction,ViaPad*%
%ADD22C,0.800000*%
%TD*%
%TA.AperFunction,Conductor*%
%ADD23C,0.250000*%
%TD*%
%ADD24C,0.350000*%
G04 APERTURE END LIST*
D10*
%TA.AperFunction,EtchedComponent*%
%TO.C,JP1*%
G36*
X130790000Y-93940000D02*
G01*
X130190000Y-93940000D01*
X130190000Y-93440000D01*
X130790000Y-93440000D01*
X130790000Y-93940000D01*
G37*
%TD.AperFunction*%
%TD*%
D11*
%TO.P,J1,11,GND*%
%TO.N,/GND*%
X100500000Y-96600000D03*
D12*
%TO.P,J1,12,HS_F*%
%TO.N,/HS_F*%
X100900000Y-97400000D03*
%TO.P,J1,13,HS_G*%
%TO.N,/HS_G*%
X100900000Y-98200000D03*
D11*
%TO.P,J1,14,GND*%
%TO.N,/GND*%
X100500000Y-99000000D03*
D12*
%TO.P,J1,15,3V3*%
%TO.N,/3V3*%
X100900000Y-99800000D03*
%TO.P,J1,16,3V3*%
X100900000Y-100600000D03*
D11*
%TO.P,J1,17,GND*%
%TO.N,/GND*%
X100500000Y-101400000D03*
D12*
%TO.P,J1,18,HS_H*%
%TO.N,/HS_H*%
X100900000Y-102200000D03*
%TO.P,J1,19,HS_I*%
%TO.N,/HS_I*%
X100900000Y-103000000D03*
D11*
%TO.P,J1,20,GND*%
%TO.N,/GND*%
X100500000Y-103800000D03*
%TD*%
D13*
%TO.P,J3,1,Pin_1*%
%TO.N,/GND*%
X144892200Y-103400000D03*
%TO.P,J3,2,Pin_2*%
%TO.N,/LS_A*%
X144892200Y-102600000D03*
%TO.P,J3,3,Pin_3*%
%TO.N,/LS_B*%
X144892200Y-101800000D03*
%TO.P,J3,4,Pin_4*%
%TO.N,/SDA*%
X144892200Y-101000000D03*
%TO.P,J3,5,Pin_5*%
%TO.N,/SCL*%
X144892200Y-100200000D03*
%TO.P,J3,6,Pin_6*%
%TO.N,/HEXP_DET*%
X144892200Y-99400000D03*
%TO.P,J3,7,Pin_7*%
%TO.N,/LS_C*%
X144892200Y-98600000D03*
%TO.P,J3,8,Pin_8*%
%TO.N,/LS_D*%
X144892200Y-97800000D03*
%TO.P,J3,9,Pin_9*%
%TO.N,/LS_E*%
X144892200Y-97000000D03*
%TO.P,J3,10,Pin_10*%
%TO.N,/GND*%
X144892200Y-96200000D03*
%TO.P,J3,11,Pin_11*%
X136692200Y-96600000D03*
%TO.P,J3,12,Pin_12*%
%TO.N,/HS_F*%
X136692200Y-97400000D03*
%TO.P,J3,13,Pin_13*%
%TO.N,/HS_G*%
X136692200Y-98200000D03*
%TO.P,J3,14,Pin_14*%
%TO.N,/GND*%
X136692200Y-99000000D03*
%TO.P,J3,15,Pin_15*%
%TO.N,/3V3*%
X136692200Y-99800000D03*
%TO.P,J3,16,Pin_16*%
X136692200Y-100600000D03*
%TO.P,J3,17,Pin_17*%
%TO.N,/GND*%
X136692200Y-101400000D03*
%TO.P,J3,18,Pin_18*%
%TO.N,/HS_H*%
X136692200Y-102200000D03*
%TO.P,J3,19,Pin_19*%
%TO.N,/HS_I*%
X136692200Y-103000000D03*
%TO.P,J3,20,Pin_20*%
%TO.N,/GND*%
X136692200Y-103800000D03*
%TD*%
D14*
%TO.P,D1,1,K*%
%TO.N,/GND*%
X130550000Y-100352500D03*
%TO.P,D1,2,A*%
%TO.N,Net-(D1-A)*%
X130550000Y-102227500D03*
%TD*%
D15*
%TO.P,H2,1,1*%
%TO.N,/GND*%
X110850000Y-87500000D03*
X111333274Y-86333274D03*
X111333274Y-88666726D03*
X112500000Y-85850000D03*
D16*
X112500000Y-87500000D03*
D15*
X112500000Y-89150000D03*
X113666726Y-86333274D03*
X113666726Y-88666726D03*
X114150000Y-87500000D03*
%TD*%
D17*
%TO.P,J2,1,Pin_1*%
%TO.N,/GND*%
X124230000Y-111410000D03*
D18*
%TO.P,J2,2,Pin_2*%
X121690000Y-111410000D03*
%TO.P,J2,3,Pin_3*%
%TO.N,/LS_A*%
X124230000Y-108870000D03*
%TO.P,J2,4,Pin_4*%
%TO.N,/HS_I*%
X121690000Y-108870000D03*
%TO.P,J2,5,Pin_5*%
%TO.N,/LS_B*%
X124230000Y-106330000D03*
%TO.P,J2,6,Pin_6*%
%TO.N,/HS_H*%
X121690000Y-106330000D03*
%TO.P,J2,7,Pin_7*%
%TO.N,/SDA*%
X124230000Y-103790000D03*
%TO.P,J2,8,Pin_8*%
%TO.N,/GND*%
X121690000Y-103790000D03*
%TO.P,J2,9,Pin_9*%
%TO.N,/SCL*%
X124230000Y-101250000D03*
%TO.P,J2,10,Pin_10*%
%TO.N,/3V3*%
X121690000Y-101250000D03*
%TO.P,J2,11,Pin_11*%
%TO.N,/HEXP_DET*%
X124230000Y-98710000D03*
%TO.P,J2,12,Pin_12*%
%TO.N,/3V3*%
X121690000Y-98710000D03*
%TO.P,J2,13,Pin_13*%
%TO.N,/LS_C*%
X124230000Y-96170000D03*
%TO.P,J2,14,Pin_14*%
%TO.N,/GND*%
X121690000Y-96170000D03*
%TO.P,J2,15,Pin_15*%
%TO.N,/LS_D*%
X124230000Y-93630000D03*
%TO.P,J2,16,Pin_16*%
%TO.N,/HS_G*%
X121690000Y-93630000D03*
%TO.P,J2,17,Pin_17*%
%TO.N,/LS_E*%
X124230000Y-91090000D03*
%TO.P,J2,18,Pin_18*%
%TO.N,/HS_F*%
X121690000Y-91090000D03*
%TO.P,J2,19,Pin_19*%
%TO.N,/GND*%
X124230000Y-88550000D03*
%TO.P,J2,20,Pin_20*%
X121690000Y-88550000D03*
%TD*%
D19*
%TO.P,JP1,1,A*%
%TO.N,/HEXP_DET*%
X130490000Y-94340000D03*
D20*
%TO.P,JP1,2,B*%
%TO.N,/GND*%
X130490000Y-93040000D03*
%TD*%
D21*
%TO.P,R1,1*%
%TO.N,/3V3*%
X130590000Y-105505000D03*
%TO.P,R1,2*%
%TO.N,Net-(D1-A)*%
X130590000Y-103855000D03*
%TD*%
D15*
%TO.P,H1,1,1*%
%TO.N,/GND*%
X110850000Y-112500000D03*
X111333274Y-111333274D03*
X111333274Y-113666726D03*
X112500000Y-110850000D03*
D16*
X112500000Y-112500000D03*
D15*
X112500000Y-114150000D03*
X113666726Y-111333274D03*
X113666726Y-113666726D03*
X114150000Y-112500000D03*
%TD*%
D22*
%TO.N,/GND*%
X144907000Y-94513400D03*
X106250000Y-105500000D03*
X106250000Y-94250000D03*
X144932400Y-91313000D03*
%TO.N,/LS_A*%
X128854200Y-107797600D03*
%TO.N,/SDA*%
X134162800Y-106045000D03*
X139446000Y-101447600D03*
%TO.N,/SCL*%
X140843000Y-100177600D03*
%TO.N,/LS_C*%
X142494000Y-98526600D03*
%TO.N,/LS_D*%
X132486400Y-96621600D03*
X127830153Y-93632447D03*
%TO.N,/LS_E*%
X134950200Y-93497400D03*
%TO.N,/HS_F*%
X131673600Y-97400000D03*
%TO.N,/HS_G*%
X130505200Y-98200000D03*
%TO.N,/3V3*%
X127877653Y-105490947D03*
%TO.N,/HS_H*%
X132943600Y-102235000D03*
%TO.N,/HS_I*%
X133858000Y-102971600D03*
%TD*%
D23*
%TO.N,/GND*%
X111990000Y-103800000D02*
X120320000Y-112130000D01*
X144892200Y-96200000D02*
X144892200Y-94528200D01*
X138480800Y-97840800D02*
X138455400Y-97815400D01*
X121690000Y-96170000D02*
X122865000Y-96170000D01*
X113640000Y-96600000D02*
X100500000Y-96600000D01*
X137995000Y-101400000D02*
X138480800Y-100914200D01*
X121690000Y-88550000D02*
X124230000Y-88550000D01*
X144892200Y-94528200D02*
X144907000Y-94513400D01*
X122865000Y-103890000D02*
X122865000Y-100070000D01*
X136692200Y-101400000D02*
X137995000Y-101400000D01*
X130267500Y-100070000D02*
X122865000Y-100070000D01*
X122865000Y-89725000D02*
X121690000Y-88550000D01*
X137532060Y-96600000D02*
X138455400Y-97523340D01*
X137829600Y-99000000D02*
X136692200Y-99000000D01*
X114716726Y-86666726D02*
X119806726Y-86666726D01*
X121690000Y-103790000D02*
X119300000Y-101400000D01*
X130550000Y-100352500D02*
X130267500Y-100070000D01*
X113550000Y-114500000D02*
X118600000Y-114500000D01*
X119806726Y-86666726D02*
X121690000Y-88550000D01*
X130490000Y-93040000D02*
X128720000Y-93040000D01*
X136692200Y-96600000D02*
X137532060Y-96600000D01*
X118860000Y-99000000D02*
X100500000Y-99000000D01*
X136692200Y-99000000D02*
X131902500Y-99000000D01*
X138480800Y-100914200D02*
X138480800Y-97840800D01*
X122865000Y-100070000D02*
X122865000Y-96170000D01*
X121690000Y-103790000D02*
X122765000Y-103790000D01*
X120970000Y-112130000D02*
X121690000Y-111410000D01*
X121690000Y-96170000D02*
X118860000Y-99000000D01*
X138455400Y-97815400D02*
X138455400Y-98374200D01*
X122865000Y-96170000D02*
X122865000Y-89725000D01*
X118600000Y-114500000D02*
X121690000Y-111410000D01*
X121690000Y-88550000D02*
X113640000Y-96600000D01*
X122765000Y-103790000D02*
X122865000Y-103890000D01*
X100500000Y-103800000D02*
X111990000Y-103800000D01*
X119300000Y-101400000D02*
X100500000Y-101400000D01*
X121690000Y-111410000D02*
X124230000Y-111410000D01*
X128720000Y-93040000D02*
X124230000Y-88550000D01*
X124230000Y-111410000D02*
X122865000Y-110045000D01*
X120320000Y-112130000D02*
X120970000Y-112130000D01*
X122865000Y-110045000D02*
X122865000Y-103890000D01*
X131902500Y-99000000D02*
X130550000Y-100352500D01*
X138455400Y-97523340D02*
X138455400Y-97815400D01*
X138455400Y-98374200D02*
X137829600Y-99000000D01*
%TO.N,/LS_A*%
X140452600Y-102600000D02*
X144892200Y-102600000D01*
X128854200Y-107797600D02*
X135255000Y-107797600D01*
X135255000Y-107797600D02*
X140452600Y-102600000D01*
%TO.N,/LS_B*%
X135646204Y-106770000D02*
X124670000Y-106770000D01*
X144892200Y-101800000D02*
X140616204Y-101800000D01*
X124670000Y-106770000D02*
X124230000Y-106330000D01*
X140616204Y-101800000D02*
X135646204Y-106770000D01*
%TO.N,/SDA*%
X133977800Y-106230000D02*
X126702400Y-106230000D01*
X139893600Y-101000000D02*
X139446000Y-101447600D01*
X124262400Y-103790000D02*
X124230000Y-103790000D01*
X144892200Y-101000000D02*
X139893600Y-101000000D01*
X134162800Y-106045000D02*
X133977800Y-106230000D01*
X126702400Y-106230000D02*
X124262400Y-103790000D01*
%TO.N,/SCL*%
X144892200Y-100200000D02*
X140865400Y-100200000D01*
X140865400Y-100200000D02*
X140843000Y-100177600D01*
%TO.N,/LS_C*%
X142494000Y-98526600D02*
X144818800Y-98526600D01*
X144818800Y-98526600D02*
X144892200Y-98600000D01*
%TO.N,/LS_D*%
X137617060Y-95885000D02*
X139532060Y-97800000D01*
X127827706Y-93630000D02*
X124230000Y-93630000D01*
X132943600Y-95885000D02*
X137617060Y-95885000D01*
X132486400Y-96342200D02*
X132943600Y-95885000D01*
X127830153Y-93632447D02*
X127827706Y-93630000D01*
X139532060Y-97800000D02*
X144892200Y-97800000D01*
X132486400Y-96621600D02*
X132486400Y-96342200D01*
%TO.N,/LS_E*%
X144892200Y-97000000D02*
X139368456Y-97000000D01*
X139368456Y-97000000D02*
X135865856Y-93497400D01*
X135865856Y-93497400D02*
X134950200Y-93497400D01*
%TO.N,/HS_F*%
X131673600Y-97400000D02*
X136692200Y-97400000D01*
X115380000Y-97400000D02*
X100900000Y-97400000D01*
X121690000Y-91090000D02*
X115380000Y-97400000D01*
%TO.N,/HS_G*%
X130505200Y-98200000D02*
X136692200Y-98200000D01*
X117120000Y-98200000D02*
X100900000Y-98200000D01*
X121690000Y-93630000D02*
X117120000Y-98200000D01*
%TO.N,/3V3*%
X120600000Y-99800000D02*
X100900000Y-99800000D01*
X127891706Y-105505000D02*
X130590000Y-105505000D01*
X131575000Y-102578295D02*
X131575000Y-104520000D01*
X136692200Y-100600000D02*
X136692200Y-99800000D01*
X100900000Y-99800000D02*
X100900000Y-100600000D01*
X121690000Y-101250000D02*
X121690000Y-98710000D01*
X121690000Y-98710000D02*
X120600000Y-99800000D01*
X121040000Y-100600000D02*
X121690000Y-101250000D01*
X131575000Y-104520000D02*
X130590000Y-105505000D01*
X100900000Y-100600000D02*
X121040000Y-100600000D01*
X127877653Y-105490947D02*
X127891706Y-105505000D01*
X136692200Y-99800000D02*
X134353295Y-99800000D01*
X134353295Y-99800000D02*
X131575000Y-102578295D01*
%TO.N,/HS_H*%
X121690000Y-106330000D02*
X120380000Y-106330000D01*
X132978600Y-102200000D02*
X132943600Y-102235000D01*
X116250000Y-102200000D02*
X100900000Y-102200000D01*
X136692200Y-102200000D02*
X132978600Y-102200000D01*
X120380000Y-106330000D02*
X116250000Y-102200000D01*
%TO.N,/HS_I*%
X121690000Y-108870000D02*
X120280000Y-108870000D01*
X136692200Y-103000000D02*
X133886400Y-103000000D01*
X120280000Y-108870000D02*
X114410000Y-103000000D01*
X114410000Y-103000000D02*
X100900000Y-103000000D01*
X133886400Y-103000000D02*
X133858000Y-102971600D01*
%TO.N,Net-(D1-A)*%
X130590000Y-103855000D02*
X130550000Y-103815000D01*
X130550000Y-103815000D02*
X130550000Y-102227500D01*
%TO.N,/HEXP_DET*%
X133846400Y-92772400D02*
X132278800Y-94340000D01*
X130490000Y-96459000D02*
X130490000Y-94340000D01*
X135264305Y-92786200D02*
X135250505Y-92772400D01*
X128239000Y-98710000D02*
X130490000Y-96459000D01*
X146878400Y-99400000D02*
X147650200Y-98628200D01*
X146812000Y-92786200D02*
X135264305Y-92786200D01*
X147650200Y-98628200D02*
X147650200Y-93624400D01*
X132278800Y-94340000D02*
X130490000Y-94340000D01*
X144892200Y-99400000D02*
X146878400Y-99400000D01*
X147650200Y-93624400D02*
X146812000Y-92786200D01*
X135250505Y-92772400D02*
X133846400Y-92772400D01*
X124230000Y-98710000D02*
X128239000Y-98710000D01*
%TD*%
%TA.AperFunction,Conductor*%
%TO.N,/GND*%
G36*
X116195565Y-81697103D02*
G01*
X116220909Y-81702490D01*
X116396990Y-81759703D01*
X116418033Y-81768768D01*
X116498662Y-81812745D01*
X116501227Y-81814183D01*
X131498528Y-90473725D01*
X148350618Y-90473725D01*
X148353418Y-90473757D01*
X148357163Y-90473841D01*
X148439486Y-90475702D01*
X148460855Y-90478050D01*
X148631066Y-90511908D01*
X148654314Y-90518959D01*
X148813353Y-90584838D01*
X148834765Y-90596283D01*
X148977886Y-90691916D01*
X148996673Y-90707335D01*
X149118387Y-90829051D01*
X149133792Y-90847822D01*
X149229420Y-90990943D01*
X149240878Y-91012381D01*
X149306743Y-91171399D01*
X149313799Y-91194661D01*
X149347653Y-91364873D01*
X149350003Y-91386227D01*
X149351972Y-91472321D01*
X149352004Y-91475156D01*
X149352063Y-108524841D01*
X149352031Y-108527668D01*
X149350068Y-108613754D01*
X149347718Y-108635115D01*
X149313866Y-108805323D01*
X149306810Y-108828586D01*
X149240947Y-108987602D01*
X149229488Y-109009041D01*
X149133867Y-109152150D01*
X149118446Y-109170941D01*
X148996740Y-109292648D01*
X148977947Y-109308070D01*
X148834841Y-109403687D01*
X148813403Y-109415146D01*
X148654385Y-109481011D01*
X148631122Y-109488067D01*
X148460912Y-109521919D01*
X148439558Y-109524269D01*
X148358702Y-109526117D01*
X148353463Y-109526237D01*
X148350631Y-109526269D01*
X131767938Y-109526269D01*
X131761906Y-109526401D01*
X131680622Y-109528191D01*
X131680612Y-109528192D01*
X131508627Y-109558510D01*
X131344514Y-109618234D01*
X131267933Y-109660246D01*
X116501287Y-118185775D01*
X116498663Y-118187248D01*
X116418041Y-118231222D01*
X116396983Y-118240293D01*
X116220916Y-118297501D01*
X116195559Y-118302891D01*
X116012956Y-118322083D01*
X115987034Y-118322083D01*
X115804430Y-118302891D01*
X115779073Y-118297501D01*
X115603006Y-118240293D01*
X115581954Y-118231224D01*
X115501323Y-118187246D01*
X115498702Y-118185775D01*
X105650653Y-112500000D01*
X109795065Y-112500000D01*
X109814786Y-112826038D01*
X109873667Y-113147341D01*
X109970835Y-113459164D01*
X109970839Y-113459175D01*
X110104897Y-113757041D01*
X110104898Y-113757043D01*
X110273881Y-114036576D01*
X110421476Y-114224968D01*
X110939936Y-113706508D01*
X111133274Y-113706508D01*
X111163722Y-113780017D01*
X111219983Y-113836278D01*
X111293492Y-113866726D01*
X111373056Y-113866726D01*
X111446565Y-113836278D01*
X111502826Y-113780017D01*
X111533274Y-113706508D01*
X111533274Y-113626944D01*
X111502826Y-113553435D01*
X111446565Y-113497174D01*
X111373056Y-113466726D01*
X111293492Y-113466726D01*
X111219983Y-113497174D01*
X111163722Y-113553435D01*
X111133274Y-113626944D01*
X111133274Y-113706508D01*
X110939936Y-113706508D01*
X111563708Y-113082736D01*
X111660967Y-113216602D01*
X111783398Y-113339033D01*
X111917262Y-113436290D01*
X110775030Y-114578522D01*
X110775030Y-114578523D01*
X110963423Y-114726118D01*
X111242956Y-114895101D01*
X111242958Y-114895102D01*
X111540824Y-115029160D01*
X111540835Y-115029164D01*
X111852658Y-115126332D01*
X112173961Y-115185213D01*
X112500000Y-115204934D01*
X112826038Y-115185213D01*
X113147341Y-115126332D01*
X113459164Y-115029164D01*
X113459175Y-115029160D01*
X113757041Y-114895102D01*
X113757043Y-114895101D01*
X114036586Y-114726112D01*
X114224968Y-114578523D01*
X114224968Y-114578522D01*
X113352955Y-113706508D01*
X113466726Y-113706508D01*
X113497174Y-113780017D01*
X113553435Y-113836278D01*
X113626944Y-113866726D01*
X113706508Y-113866726D01*
X113780017Y-113836278D01*
X113836278Y-113780017D01*
X113866726Y-113706508D01*
X113866726Y-113626944D01*
X113836278Y-113553435D01*
X113780017Y-113497174D01*
X113706508Y-113466726D01*
X113626944Y-113466726D01*
X113553435Y-113497174D01*
X113497174Y-113553435D01*
X113466726Y-113626944D01*
X113466726Y-113706508D01*
X113352955Y-113706508D01*
X113082737Y-113436290D01*
X113216602Y-113339033D01*
X113339033Y-113216602D01*
X113436290Y-113082737D01*
X114578522Y-114224968D01*
X114578523Y-114224968D01*
X114726112Y-114036586D01*
X114895101Y-113757043D01*
X114895102Y-113757041D01*
X115029160Y-113459175D01*
X115029164Y-113459164D01*
X115126332Y-113147341D01*
X115185213Y-112826038D01*
X115204934Y-112500000D01*
X115185213Y-112173961D01*
X115126332Y-111852658D01*
X115029164Y-111540835D01*
X115029160Y-111540824D01*
X114895102Y-111242958D01*
X114895101Y-111242956D01*
X114726118Y-110963423D01*
X114578522Y-110775030D01*
X113436290Y-111917262D01*
X113339033Y-111783398D01*
X113216602Y-111660967D01*
X113082736Y-111563709D01*
X113273389Y-111373056D01*
X113466726Y-111373056D01*
X113497174Y-111446565D01*
X113553435Y-111502826D01*
X113626944Y-111533274D01*
X113706508Y-111533274D01*
X113780017Y-111502826D01*
X113836278Y-111446565D01*
X113866726Y-111373056D01*
X113866726Y-111293492D01*
X113836278Y-111219983D01*
X113780017Y-111163722D01*
X113706508Y-111133274D01*
X113626944Y-111133274D01*
X113553435Y-111163722D01*
X113497174Y-111219983D01*
X113466726Y-111293492D01*
X113466726Y-111373056D01*
X113273389Y-111373056D01*
X114224968Y-110421476D01*
X114036576Y-110273881D01*
X113757043Y-110104898D01*
X113757041Y-110104897D01*
X113459175Y-109970839D01*
X113459164Y-109970835D01*
X113147341Y-109873667D01*
X112826038Y-109814786D01*
X112500000Y-109795065D01*
X112173961Y-109814786D01*
X111852658Y-109873667D01*
X111540835Y-109970835D01*
X111540824Y-109970839D01*
X111242958Y-110104897D01*
X111242956Y-110104898D01*
X110963422Y-110273881D01*
X110963416Y-110273886D01*
X110775030Y-110421474D01*
X110775029Y-110421476D01*
X111917262Y-111563709D01*
X111783398Y-111660967D01*
X111660967Y-111783398D01*
X111563709Y-111917262D01*
X111019503Y-111373056D01*
X111133274Y-111373056D01*
X111163722Y-111446565D01*
X111219983Y-111502826D01*
X111293492Y-111533274D01*
X111373056Y-111533274D01*
X111446565Y-111502826D01*
X111502826Y-111446565D01*
X111533274Y-111373056D01*
X111533274Y-111293492D01*
X111502826Y-111219983D01*
X111446565Y-111163722D01*
X111373056Y-111133274D01*
X111293492Y-111133274D01*
X111219983Y-111163722D01*
X111163722Y-111219983D01*
X111133274Y-111293492D01*
X111133274Y-111373056D01*
X111019503Y-111373056D01*
X110421476Y-110775029D01*
X110421474Y-110775030D01*
X110273886Y-110963416D01*
X110273881Y-110963422D01*
X110104898Y-111242956D01*
X110104897Y-111242958D01*
X109970839Y-111540824D01*
X109970835Y-111540835D01*
X109873667Y-111852658D01*
X109814786Y-112173961D01*
X109795065Y-112500000D01*
X105650653Y-112500000D01*
X100501428Y-109527093D01*
X100498608Y-109525415D01*
X100420311Y-109477404D01*
X100402161Y-109463847D01*
X100264511Y-109339913D01*
X100247165Y-109320649D01*
X100139266Y-109172148D01*
X100126306Y-109149703D01*
X100051634Y-108982002D01*
X100043626Y-108957358D01*
X100005112Y-108776200D01*
X100002445Y-108753674D01*
X100000042Y-108661846D01*
X100000000Y-108658603D01*
X100000000Y-106253025D01*
X100000147Y-106246989D01*
X100000363Y-106242548D01*
X100001352Y-106222261D01*
X100010642Y-106180856D01*
X100030659Y-106132529D01*
X100057534Y-106092308D01*
X100092308Y-106057534D01*
X100132529Y-106030659D01*
X100180856Y-106010642D01*
X100222261Y-106001352D01*
X100241421Y-106000418D01*
X100246990Y-106000147D01*
X100253026Y-106000000D01*
X104500015Y-106000000D01*
X104551275Y-105998564D01*
X104578623Y-105997799D01*
X104731927Y-105962809D01*
X104873601Y-105894582D01*
X104996541Y-105796541D01*
X105094582Y-105673601D01*
X105162809Y-105531927D01*
X105197799Y-105378623D01*
X105200000Y-105300000D01*
X105199762Y-105291508D01*
X105197799Y-105221384D01*
X105197799Y-105221377D01*
X105162809Y-105068073D01*
X105094582Y-104926399D01*
X104996541Y-104803459D01*
X104873601Y-104705418D01*
X104873599Y-104705417D01*
X104873598Y-104705416D01*
X104731927Y-104637190D01*
X104578625Y-104602201D01*
X104578615Y-104602200D01*
X104500015Y-104600000D01*
X104500000Y-104600000D01*
X104389804Y-104600000D01*
X104322765Y-104580315D01*
X104277010Y-104527511D01*
X104265807Y-104476862D01*
X104265742Y-104467578D01*
X104260757Y-103750362D01*
X104279975Y-103683187D01*
X104332460Y-103637066D01*
X104384754Y-103625500D01*
X114099548Y-103625500D01*
X114166587Y-103645185D01*
X114187229Y-103661819D01*
X119881263Y-109355855D01*
X119881267Y-109355858D01*
X119983710Y-109424309D01*
X119983711Y-109424309D01*
X119983715Y-109424312D01*
X120050396Y-109451931D01*
X120050398Y-109451933D01*
X120097543Y-109471461D01*
X120097548Y-109471463D01*
X120117597Y-109475451D01*
X120145549Y-109481011D01*
X120218392Y-109495501D01*
X120218394Y-109495501D01*
X120347721Y-109495501D01*
X120347741Y-109495500D01*
X120414773Y-109495500D01*
X120481812Y-109515185D01*
X120516348Y-109548377D01*
X120651501Y-109741396D01*
X120651506Y-109741402D01*
X120818597Y-109908493D01*
X120818603Y-109908498D01*
X121004594Y-110038730D01*
X121048219Y-110093307D01*
X121055413Y-110162805D01*
X121023890Y-110225160D01*
X121004595Y-110241880D01*
X120818922Y-110371890D01*
X120818920Y-110371891D01*
X120651891Y-110538920D01*
X120651886Y-110538926D01*
X120516400Y-110732420D01*
X120516399Y-110732422D01*
X120416570Y-110946507D01*
X120416567Y-110946513D01*
X120359364Y-111159999D01*
X120359364Y-111160000D01*
X121256988Y-111160000D01*
X121224075Y-111217007D01*
X121190000Y-111344174D01*
X121190000Y-111475826D01*
X121224075Y-111602993D01*
X121256988Y-111660000D01*
X120359364Y-111660000D01*
X120416567Y-111873486D01*
X120416570Y-111873492D01*
X120516399Y-112087578D01*
X120651894Y-112281082D01*
X120818917Y-112448105D01*
X121012421Y-112583600D01*
X121226507Y-112683429D01*
X121226516Y-112683433D01*
X121440000Y-112740634D01*
X121440000Y-111843012D01*
X121497007Y-111875925D01*
X121624174Y-111910000D01*
X121755826Y-111910000D01*
X121882993Y-111875925D01*
X121940000Y-111843012D01*
X121940000Y-112740633D01*
X122153483Y-112683433D01*
X122153492Y-112683429D01*
X122367578Y-112583600D01*
X122561078Y-112448108D01*
X122683521Y-112325665D01*
X122744844Y-112292180D01*
X122814536Y-112297164D01*
X122870470Y-112339035D01*
X122887385Y-112370013D01*
X122936645Y-112502086D01*
X122936649Y-112502093D01*
X123022809Y-112617187D01*
X123022812Y-112617190D01*
X123137906Y-112703350D01*
X123137913Y-112703354D01*
X123272620Y-112753596D01*
X123272627Y-112753598D01*
X123332155Y-112759999D01*
X123332172Y-112760000D01*
X123980000Y-112760000D01*
X123980000Y-111843012D01*
X124037007Y-111875925D01*
X124164174Y-111910000D01*
X124295826Y-111910000D01*
X124422993Y-111875925D01*
X124480000Y-111843012D01*
X124480000Y-112760000D01*
X125127828Y-112760000D01*
X125127844Y-112759999D01*
X125187372Y-112753598D01*
X125187379Y-112753596D01*
X125322086Y-112703354D01*
X125322093Y-112703350D01*
X125437187Y-112617190D01*
X125437190Y-112617187D01*
X125523350Y-112502093D01*
X125523354Y-112502086D01*
X125573596Y-112367379D01*
X125573598Y-112367372D01*
X125579999Y-112307844D01*
X125580000Y-112307827D01*
X125580000Y-111660000D01*
X124663012Y-111660000D01*
X124695925Y-111602993D01*
X124730000Y-111475826D01*
X124730000Y-111344174D01*
X124695925Y-111217007D01*
X124663012Y-111160000D01*
X125580000Y-111160000D01*
X125580000Y-110512172D01*
X125579999Y-110512155D01*
X125573598Y-110452627D01*
X125573596Y-110452620D01*
X125523354Y-110317913D01*
X125523350Y-110317906D01*
X125437190Y-110202812D01*
X125437187Y-110202809D01*
X125322093Y-110116649D01*
X125322088Y-110116646D01*
X125190528Y-110067577D01*
X125134595Y-110025705D01*
X125110178Y-109960241D01*
X125125030Y-109891968D01*
X125146175Y-109863720D01*
X125268495Y-109741401D01*
X125404035Y-109547830D01*
X125503903Y-109333663D01*
X125565063Y-109105408D01*
X125585659Y-108870000D01*
X125565063Y-108634592D01*
X125503903Y-108406337D01*
X125404035Y-108192171D01*
X125398425Y-108184158D01*
X125268494Y-107998597D01*
X125101402Y-107831506D01*
X125101401Y-107831505D01*
X124915842Y-107701575D01*
X124915841Y-107701574D01*
X124872216Y-107646997D01*
X124865024Y-107577498D01*
X124896546Y-107515144D01*
X124915836Y-107498428D01*
X125030808Y-107417925D01*
X125097014Y-107395598D01*
X125101931Y-107395500D01*
X127867337Y-107395500D01*
X127934376Y-107415185D01*
X127980131Y-107467989D01*
X127990075Y-107537147D01*
X127985268Y-107557817D01*
X127968526Y-107609344D01*
X127948740Y-107797600D01*
X127968526Y-107985856D01*
X127968527Y-107985859D01*
X128027018Y-108165877D01*
X128027021Y-108165884D01*
X128121667Y-108329816D01*
X128242601Y-108464126D01*
X128248329Y-108470488D01*
X128401465Y-108581748D01*
X128401470Y-108581751D01*
X128574392Y-108658742D01*
X128574397Y-108658744D01*
X128759554Y-108698100D01*
X128759555Y-108698100D01*
X128948844Y-108698100D01*
X128948846Y-108698100D01*
X129134003Y-108658744D01*
X129306930Y-108581751D01*
X129460071Y-108470488D01*
X129462988Y-108467247D01*
X129465800Y-108464126D01*
X129525287Y-108427479D01*
X129557948Y-108423100D01*
X135316608Y-108423100D01*
X135316608Y-108423099D01*
X135400882Y-108406337D01*
X135400883Y-108406337D01*
X135413183Y-108403890D01*
X135437452Y-108399063D01*
X135487496Y-108378334D01*
X135551286Y-108351912D01*
X135605496Y-108315689D01*
X135605497Y-108315689D01*
X135637433Y-108294348D01*
X135653733Y-108283458D01*
X135740858Y-108196333D01*
X135740858Y-108196331D01*
X135751066Y-108186124D01*
X135751067Y-108186121D01*
X139626790Y-104310400D01*
X139688112Y-104276916D01*
X139757804Y-104281900D01*
X139813737Y-104323772D01*
X139838154Y-104389236D01*
X139829031Y-104445534D01*
X139806110Y-104500869D01*
X139806107Y-104500881D01*
X139766700Y-104698993D01*
X139766700Y-104901008D01*
X139806107Y-105099120D01*
X139806109Y-105099128D01*
X139883412Y-105285753D01*
X139883417Y-105285763D01*
X139995641Y-105453719D01*
X140138481Y-105596559D01*
X140306437Y-105708783D01*
X140306441Y-105708785D01*
X140306444Y-105708787D01*
X140493073Y-105786092D01*
X140691192Y-105825500D01*
X140691196Y-105825501D01*
X140691197Y-105825501D01*
X140893204Y-105825501D01*
X140893205Y-105825500D01*
X141091327Y-105786092D01*
X141277956Y-105708787D01*
X141445918Y-105596559D01*
X141588758Y-105453719D01*
X141700986Y-105285757D01*
X141778291Y-105099128D01*
X141817700Y-104901004D01*
X141817700Y-104698998D01*
X141778291Y-104500874D01*
X141700986Y-104314245D01*
X141700984Y-104314242D01*
X141700982Y-104314238D01*
X141588758Y-104146282D01*
X141445918Y-104003442D01*
X141277962Y-103891218D01*
X141277952Y-103891213D01*
X141091327Y-103813910D01*
X141091319Y-103813908D01*
X140893207Y-103774501D01*
X140893203Y-103774501D01*
X140691197Y-103774501D01*
X140691192Y-103774501D01*
X140493080Y-103813908D01*
X140493068Y-103813911D01*
X140437733Y-103836832D01*
X140368264Y-103844301D01*
X140305785Y-103813025D01*
X140270133Y-103752936D01*
X140272627Y-103683111D01*
X140293080Y-103650000D01*
X143402674Y-103650000D01*
X143439043Y-103775185D01*
X143439045Y-103775191D01*
X143519426Y-103911108D01*
X143519432Y-103911116D01*
X143631083Y-104022767D01*
X143631091Y-104022773D01*
X143767011Y-104103155D01*
X143767014Y-104103156D01*
X143918646Y-104147210D01*
X143918652Y-104147211D01*
X143954081Y-104149999D01*
X143954094Y-104150000D01*
X144642200Y-104150000D01*
X144642200Y-103650000D01*
X145142200Y-103650000D01*
X145142200Y-104150000D01*
X145830306Y-104150000D01*
X145830318Y-104149999D01*
X145865747Y-104147211D01*
X145865753Y-104147210D01*
X146017385Y-104103156D01*
X146017388Y-104103155D01*
X146153308Y-104022773D01*
X146153316Y-104022767D01*
X146264967Y-103911116D01*
X146264973Y-103911108D01*
X146345354Y-103775191D01*
X146345356Y-103775185D01*
X146381725Y-103650000D01*
X145142200Y-103650000D01*
X144642200Y-103650000D01*
X143402674Y-103650000D01*
X140293080Y-103650000D01*
X140302598Y-103634592D01*
X140675372Y-103261819D01*
X140736695Y-103228334D01*
X140763053Y-103225500D01*
X143600798Y-103225500D01*
X143663918Y-103242767D01*
X143766810Y-103303618D01*
X143918573Y-103347709D01*
X143954037Y-103350500D01*
X145830362Y-103350499D01*
X145865827Y-103347709D01*
X146017590Y-103303618D01*
X146153620Y-103223170D01*
X146190470Y-103186320D01*
X146251792Y-103152834D01*
X146278152Y-103150000D01*
X146381726Y-103150000D01*
X146381725Y-103149999D01*
X146348458Y-103035492D01*
X146348458Y-102966302D01*
X146352837Y-102951230D01*
X146389909Y-102823627D01*
X146392700Y-102788163D01*
X146392699Y-102411838D01*
X146389909Y-102376373D01*
X146348719Y-102234595D01*
X146348719Y-102165405D01*
X146389907Y-102023633D01*
X146389909Y-102023627D01*
X146392700Y-101988163D01*
X146392699Y-101611838D01*
X146389909Y-101576373D01*
X146348719Y-101434595D01*
X146348719Y-101365405D01*
X146368305Y-101297989D01*
X146389909Y-101223627D01*
X146392700Y-101188163D01*
X146392699Y-100811838D01*
X146389909Y-100776373D01*
X146348719Y-100634595D01*
X146348719Y-100565405D01*
X146383500Y-100445687D01*
X146389909Y-100423627D01*
X146392700Y-100388163D01*
X146392699Y-100149499D01*
X146412383Y-100082461D01*
X146465187Y-100036706D01*
X146516699Y-100025500D01*
X146940008Y-100025500D01*
X146940008Y-100025499D01*
X147024327Y-100008728D01*
X147024328Y-100008728D01*
X147036613Y-100006284D01*
X147060852Y-100001463D01*
X147103245Y-99983903D01*
X147174686Y-99954312D01*
X147233613Y-99914937D01*
X147277133Y-99885858D01*
X147364258Y-99798733D01*
X147364259Y-99798731D01*
X147371325Y-99791665D01*
X147371328Y-99791661D01*
X148048929Y-99114060D01*
X148048933Y-99114058D01*
X148136058Y-99026933D01*
X148188994Y-98947709D01*
X148204512Y-98924486D01*
X148237852Y-98843992D01*
X148237853Y-98843991D01*
X148251660Y-98810660D01*
X148251660Y-98810657D01*
X148251663Y-98810652D01*
X148267264Y-98732216D01*
X148275700Y-98689807D01*
X148275700Y-98566593D01*
X148275700Y-93562794D01*
X148251663Y-93441948D01*
X148215638Y-93354976D01*
X148204512Y-93328115D01*
X148187456Y-93302590D01*
X148136058Y-93225667D01*
X148136056Y-93225664D01*
X148045837Y-93135445D01*
X148045806Y-93135416D01*
X147302198Y-92391808D01*
X147302178Y-92391786D01*
X147210733Y-92300341D01*
X147156396Y-92264035D01*
X147156395Y-92264034D01*
X147108290Y-92231890D01*
X147108286Y-92231888D01*
X147027792Y-92198547D01*
X146994452Y-92184737D01*
X146994453Y-92184737D01*
X146980653Y-92181992D01*
X146925073Y-92170937D01*
X146899340Y-92165818D01*
X146873608Y-92160700D01*
X146873607Y-92160700D01*
X146873606Y-92160700D01*
X135393706Y-92160700D01*
X135369518Y-92158318D01*
X135312112Y-92146900D01*
X135312111Y-92146900D01*
X133908007Y-92146900D01*
X133784793Y-92146900D01*
X133784789Y-92146900D01*
X133724371Y-92158918D01*
X133681143Y-92167516D01*
X133663946Y-92170937D01*
X133550116Y-92218087D01*
X133550107Y-92218092D01*
X133447668Y-92286540D01*
X133421207Y-92313002D01*
X133360542Y-92373667D01*
X133360539Y-92373670D01*
X132056029Y-93678181D01*
X131994706Y-93711666D01*
X131968348Y-93714500D01*
X131817454Y-93714500D01*
X131750415Y-93694815D01*
X131704660Y-93642011D01*
X131701799Y-93634344D01*
X131699819Y-93630009D01*
X131699819Y-93630008D01*
X131649828Y-93552221D01*
X131622032Y-93508969D01*
X131622028Y-93508965D01*
X131513299Y-93414750D01*
X131513297Y-93414748D01*
X131513294Y-93414746D01*
X131513290Y-93414744D01*
X131382419Y-93354976D01*
X131382414Y-93354975D01*
X131240000Y-93334500D01*
X130775763Y-93334500D01*
X130704236Y-93334500D01*
X130275764Y-93334500D01*
X130204237Y-93334500D01*
X129740000Y-93334500D01*
X129739997Y-93334500D01*
X129668059Y-93339644D01*
X129530005Y-93380182D01*
X129408969Y-93457967D01*
X129408965Y-93457971D01*
X129314750Y-93566700D01*
X129314744Y-93566709D01*
X129254976Y-93697580D01*
X129254975Y-93697585D01*
X129234500Y-93839999D01*
X129234500Y-94411889D01*
X129254974Y-94554296D01*
X129254976Y-94554304D01*
X129295483Y-94692259D01*
X129313479Y-94731665D01*
X129355252Y-94823136D01*
X129355253Y-94823138D01*
X129429376Y-94938476D01*
X129430196Y-94939917D01*
X129432988Y-94944098D01*
X129527207Y-95052830D01*
X129527210Y-95052833D01*
X129635864Y-95146981D01*
X129635867Y-95146984D01*
X129635869Y-95146985D01*
X129635870Y-95146986D01*
X129756906Y-95224770D01*
X129792010Y-95240801D01*
X129844815Y-95286556D01*
X129864500Y-95353595D01*
X129864500Y-96148547D01*
X129844815Y-96215586D01*
X129828181Y-96236228D01*
X128016229Y-98048181D01*
X127954906Y-98081666D01*
X127928548Y-98084500D01*
X125505227Y-98084500D01*
X125438188Y-98064815D01*
X125403652Y-98031623D01*
X125268494Y-97838597D01*
X125101402Y-97671506D01*
X125101396Y-97671501D01*
X124915842Y-97541575D01*
X124872217Y-97486998D01*
X124865023Y-97417500D01*
X124896546Y-97355145D01*
X124915842Y-97338425D01*
X124938026Y-97322891D01*
X125101401Y-97208495D01*
X125268495Y-97041401D01*
X125404035Y-96847830D01*
X125503903Y-96633663D01*
X125565063Y-96405408D01*
X125585659Y-96170000D01*
X125585597Y-96169297D01*
X125566298Y-95948711D01*
X125565063Y-95934592D01*
X125503903Y-95706337D01*
X125404035Y-95492171D01*
X125398731Y-95484595D01*
X125268494Y-95298597D01*
X125101402Y-95131506D01*
X125101396Y-95131501D01*
X124915842Y-95001575D01*
X124872217Y-94946998D01*
X124865023Y-94877500D01*
X124896546Y-94815145D01*
X124915842Y-94798425D01*
X125001091Y-94738733D01*
X125101401Y-94668495D01*
X125268495Y-94501401D01*
X125403652Y-94308377D01*
X125458229Y-94264752D01*
X125505227Y-94255500D01*
X127124202Y-94255500D01*
X127191241Y-94275185D01*
X127216351Y-94296527D01*
X127224281Y-94305334D01*
X127224288Y-94305340D01*
X127377418Y-94416595D01*
X127377423Y-94416598D01*
X127550345Y-94493589D01*
X127550350Y-94493591D01*
X127735507Y-94532947D01*
X127735508Y-94532947D01*
X127924797Y-94532947D01*
X127924799Y-94532947D01*
X128109956Y-94493591D01*
X128282883Y-94416598D01*
X128436024Y-94305335D01*
X128562686Y-94164663D01*
X128657332Y-94000731D01*
X128715827Y-93820703D01*
X128735613Y-93632447D01*
X128715827Y-93444191D01*
X128657332Y-93264163D01*
X128562686Y-93100231D01*
X128436024Y-92959559D01*
X128436023Y-92959558D01*
X128282887Y-92848298D01*
X128282882Y-92848295D01*
X128109960Y-92771304D01*
X128109955Y-92771302D01*
X127964154Y-92740312D01*
X127924799Y-92731947D01*
X127735507Y-92731947D01*
X127703050Y-92738845D01*
X127550350Y-92771302D01*
X127550345Y-92771304D01*
X127377423Y-92848295D01*
X127377418Y-92848298D01*
X127224283Y-92959557D01*
X127224277Y-92959562D01*
X127220759Y-92963471D01*
X127161273Y-93000120D01*
X127128608Y-93004500D01*
X125505227Y-93004500D01*
X125438188Y-92984815D01*
X125403652Y-92951623D01*
X125268494Y-92758597D01*
X125101402Y-92591506D01*
X125101396Y-92591501D01*
X124915842Y-92461575D01*
X124872217Y-92406998D01*
X124865023Y-92337500D01*
X124896546Y-92275145D01*
X124915842Y-92258425D01*
X124973443Y-92218092D01*
X125101401Y-92128495D01*
X125268495Y-91961401D01*
X125404035Y-91767830D01*
X125503903Y-91553663D01*
X125565063Y-91325408D01*
X125585659Y-91090000D01*
X125565063Y-90854592D01*
X125503903Y-90626337D01*
X125404035Y-90412171D01*
X125398425Y-90404158D01*
X125268494Y-90218597D01*
X125101402Y-90051506D01*
X125101401Y-90051505D01*
X124915405Y-89921269D01*
X124871781Y-89866692D01*
X124864588Y-89797193D01*
X124896110Y-89734839D01*
X124915405Y-89718119D01*
X125101082Y-89588105D01*
X125268105Y-89421082D01*
X125403600Y-89227578D01*
X125503429Y-89013492D01*
X125503432Y-89013486D01*
X125560636Y-88800000D01*
X124663012Y-88800000D01*
X124695925Y-88742993D01*
X124730000Y-88615826D01*
X124730000Y-88484174D01*
X124695925Y-88357007D01*
X124663012Y-88300000D01*
X125560636Y-88300000D01*
X125560635Y-88299999D01*
X125503432Y-88086513D01*
X125503429Y-88086507D01*
X125403600Y-87872422D01*
X125403599Y-87872420D01*
X125268113Y-87678926D01*
X125268108Y-87678920D01*
X125101082Y-87511894D01*
X124907578Y-87376399D01*
X124693492Y-87276570D01*
X124693486Y-87276567D01*
X124480000Y-87219364D01*
X124480000Y-88116988D01*
X124422993Y-88084075D01*
X124295826Y-88050000D01*
X124164174Y-88050000D01*
X124037007Y-88084075D01*
X123980000Y-88116988D01*
X123980000Y-87219364D01*
X123979999Y-87219364D01*
X123766513Y-87276567D01*
X123766507Y-87276570D01*
X123552422Y-87376399D01*
X123552420Y-87376400D01*
X123358926Y-87511886D01*
X123358920Y-87511891D01*
X123191891Y-87678920D01*
X123191890Y-87678922D01*
X123061575Y-87865031D01*
X123006998Y-87908655D01*
X122937499Y-87915848D01*
X122875145Y-87884326D01*
X122858425Y-87865031D01*
X122728109Y-87678922D01*
X122728108Y-87678920D01*
X122561082Y-87511894D01*
X122367578Y-87376399D01*
X122153492Y-87276570D01*
X122153486Y-87276567D01*
X121940000Y-87219364D01*
X121940000Y-88116988D01*
X121882993Y-88084075D01*
X121755826Y-88050000D01*
X121624174Y-88050000D01*
X121497007Y-88084075D01*
X121440000Y-88116988D01*
X121440000Y-87219364D01*
X121439999Y-87219364D01*
X121226513Y-87276567D01*
X121226507Y-87276570D01*
X121012422Y-87376399D01*
X121012420Y-87376400D01*
X120818926Y-87511886D01*
X120818920Y-87511891D01*
X120651891Y-87678920D01*
X120651886Y-87678926D01*
X120516400Y-87872420D01*
X120516399Y-87872422D01*
X120416570Y-88086507D01*
X120416567Y-88086513D01*
X120359364Y-88299999D01*
X120359364Y-88300000D01*
X121256988Y-88300000D01*
X121224075Y-88357007D01*
X121190000Y-88484174D01*
X121190000Y-88615826D01*
X121224075Y-88742993D01*
X121256988Y-88800000D01*
X120359364Y-88800000D01*
X120416567Y-89013486D01*
X120416570Y-89013492D01*
X120516399Y-89227578D01*
X120651894Y-89421082D01*
X120818917Y-89588105D01*
X121004595Y-89718119D01*
X121048219Y-89772696D01*
X121055412Y-89842195D01*
X121023890Y-89904549D01*
X121004595Y-89921269D01*
X120818594Y-90051508D01*
X120651505Y-90218597D01*
X120515965Y-90412169D01*
X120515964Y-90412171D01*
X120416098Y-90626335D01*
X120416094Y-90626344D01*
X120354938Y-90854586D01*
X120354936Y-90854596D01*
X120334341Y-91089999D01*
X120334341Y-91090000D01*
X120354937Y-91325408D01*
X120381855Y-91425873D01*
X120380192Y-91495723D01*
X120349761Y-91545646D01*
X115157229Y-96738181D01*
X115095906Y-96771666D01*
X115069548Y-96774500D01*
X104335407Y-96774500D01*
X104268368Y-96754815D01*
X104222613Y-96702011D01*
X104211410Y-96651362D01*
X104210354Y-96499500D01*
X104203579Y-95524861D01*
X104222797Y-95457687D01*
X104275282Y-95411566D01*
X104327576Y-95400000D01*
X104500015Y-95400000D01*
X104551275Y-95398564D01*
X104578623Y-95397799D01*
X104731927Y-95362809D01*
X104873601Y-95294582D01*
X104996541Y-95196541D01*
X105094582Y-95073601D01*
X105162809Y-94931927D01*
X105197799Y-94778623D01*
X105199601Y-94714246D01*
X105200000Y-94700015D01*
X105200000Y-94699984D01*
X105197799Y-94621384D01*
X105197799Y-94621377D01*
X105162809Y-94468073D01*
X105138018Y-94416595D01*
X105094583Y-94326401D01*
X105094582Y-94326400D01*
X105094582Y-94326399D01*
X104996541Y-94203459D01*
X104873601Y-94105418D01*
X104873599Y-94105417D01*
X104873598Y-94105416D01*
X104731927Y-94037190D01*
X104578625Y-94002201D01*
X104578615Y-94002200D01*
X104500015Y-94000000D01*
X104500000Y-94000000D01*
X100253026Y-94000000D01*
X100246986Y-93999853D01*
X100237667Y-93999398D01*
X100222260Y-93998647D01*
X100180850Y-93989355D01*
X100132533Y-93969342D01*
X100092305Y-93942462D01*
X100057537Y-93907694D01*
X100030657Y-93867466D01*
X100029807Y-93865413D01*
X100010642Y-93819145D01*
X100001352Y-93777737D01*
X100000147Y-93753010D01*
X100000000Y-93746974D01*
X100000000Y-91341352D01*
X100000041Y-91338159D01*
X100000369Y-91325413D01*
X100002406Y-91246341D01*
X100005074Y-91223767D01*
X100043585Y-91042625D01*
X100051596Y-91017975D01*
X100124345Y-90854596D01*
X100126273Y-90850266D01*
X100139232Y-90827825D01*
X100247139Y-90679315D01*
X100264485Y-90660052D01*
X100402126Y-90536127D01*
X100420298Y-90522557D01*
X100498688Y-90474528D01*
X100501352Y-90472943D01*
X105650639Y-87500000D01*
X109795065Y-87500000D01*
X109814786Y-87826038D01*
X109873667Y-88147341D01*
X109970835Y-88459164D01*
X109970839Y-88459175D01*
X110104897Y-88757041D01*
X110104898Y-88757043D01*
X110273881Y-89036576D01*
X110421476Y-89224968D01*
X110939936Y-88706508D01*
X111133274Y-88706508D01*
X111163722Y-88780017D01*
X111219983Y-88836278D01*
X111293492Y-88866726D01*
X111373056Y-88866726D01*
X111446565Y-88836278D01*
X111502826Y-88780017D01*
X111533274Y-88706508D01*
X111533274Y-88626944D01*
X111502826Y-88553435D01*
X111446565Y-88497174D01*
X111373056Y-88466726D01*
X111293492Y-88466726D01*
X111219983Y-88497174D01*
X111163722Y-88553435D01*
X111133274Y-88626944D01*
X111133274Y-88706508D01*
X110939936Y-88706508D01*
X111563708Y-88082736D01*
X111660967Y-88216602D01*
X111783398Y-88339033D01*
X111917262Y-88436290D01*
X110775030Y-89578522D01*
X110775030Y-89578523D01*
X110963423Y-89726118D01*
X111242956Y-89895101D01*
X111242958Y-89895102D01*
X111540824Y-90029160D01*
X111540835Y-90029164D01*
X111852658Y-90126332D01*
X112173961Y-90185213D01*
X112500000Y-90204934D01*
X112826038Y-90185213D01*
X113147341Y-90126332D01*
X113459164Y-90029164D01*
X113459175Y-90029160D01*
X113757041Y-89895102D01*
X113757043Y-89895101D01*
X114036586Y-89726112D01*
X114224968Y-89578523D01*
X114224968Y-89578522D01*
X113352955Y-88706508D01*
X113466726Y-88706508D01*
X113497174Y-88780017D01*
X113553435Y-88836278D01*
X113626944Y-88866726D01*
X113706508Y-88866726D01*
X113780017Y-88836278D01*
X113836278Y-88780017D01*
X113866726Y-88706508D01*
X113866726Y-88626944D01*
X113836278Y-88553435D01*
X113780017Y-88497174D01*
X113706508Y-88466726D01*
X113626944Y-88466726D01*
X113553435Y-88497174D01*
X113497174Y-88553435D01*
X113466726Y-88626944D01*
X113466726Y-88706508D01*
X113352955Y-88706508D01*
X113082737Y-88436290D01*
X113216602Y-88339033D01*
X113339033Y-88216602D01*
X113436290Y-88082737D01*
X114578522Y-89224968D01*
X114578523Y-89224968D01*
X114726112Y-89036586D01*
X114895101Y-88757043D01*
X114895102Y-88757041D01*
X115029160Y-88459175D01*
X115029164Y-88459164D01*
X115126332Y-88147341D01*
X115185213Y-87826038D01*
X115204934Y-87500000D01*
X115185213Y-87173961D01*
X115126332Y-86852658D01*
X115029164Y-86540835D01*
X115029160Y-86540824D01*
X114895102Y-86242958D01*
X114895101Y-86242956D01*
X114726118Y-85963423D01*
X114578522Y-85775030D01*
X113436290Y-86917262D01*
X113339033Y-86783398D01*
X113216602Y-86660967D01*
X113082736Y-86563709D01*
X113273389Y-86373056D01*
X113466726Y-86373056D01*
X113497174Y-86446565D01*
X113553435Y-86502826D01*
X113626944Y-86533274D01*
X113706508Y-86533274D01*
X113780017Y-86502826D01*
X113836278Y-86446565D01*
X113866726Y-86373056D01*
X113866726Y-86293492D01*
X113836278Y-86219983D01*
X113780017Y-86163722D01*
X113706508Y-86133274D01*
X113626944Y-86133274D01*
X113553435Y-86163722D01*
X113497174Y-86219983D01*
X113466726Y-86293492D01*
X113466726Y-86373056D01*
X113273389Y-86373056D01*
X114224968Y-85421476D01*
X114036576Y-85273881D01*
X113757043Y-85104898D01*
X113757041Y-85104897D01*
X113459175Y-84970839D01*
X113459164Y-84970835D01*
X113147341Y-84873667D01*
X112826038Y-84814786D01*
X112500000Y-84795065D01*
X112173961Y-84814786D01*
X111852658Y-84873667D01*
X111540835Y-84970835D01*
X111540824Y-84970839D01*
X111242958Y-85104897D01*
X111242956Y-85104898D01*
X110963422Y-85273881D01*
X110963416Y-85273886D01*
X110775030Y-85421474D01*
X110775029Y-85421476D01*
X111917262Y-86563709D01*
X111783398Y-86660967D01*
X111660967Y-86783398D01*
X111563709Y-86917262D01*
X111019503Y-86373056D01*
X111133274Y-86373056D01*
X111163722Y-86446565D01*
X111219983Y-86502826D01*
X111293492Y-86533274D01*
X111373056Y-86533274D01*
X111446565Y-86502826D01*
X111502826Y-86446565D01*
X111533274Y-86373056D01*
X111533274Y-86293492D01*
X111502826Y-86219983D01*
X111446565Y-86163722D01*
X111373056Y-86133274D01*
X111293492Y-86133274D01*
X111219983Y-86163722D01*
X111163722Y-86219983D01*
X111133274Y-86293492D01*
X111133274Y-86373056D01*
X111019503Y-86373056D01*
X110421476Y-85775029D01*
X110421474Y-85775030D01*
X110273886Y-85963416D01*
X110273881Y-85963422D01*
X110104898Y-86242956D01*
X110104897Y-86242958D01*
X109970839Y-86540824D01*
X109970835Y-86540835D01*
X109873667Y-86852658D01*
X109814786Y-87173961D01*
X109795065Y-87500000D01*
X105650639Y-87500000D01*
X115498734Y-81814199D01*
X115501260Y-81812781D01*
X115581963Y-81768764D01*
X115602995Y-81759704D01*
X115779082Y-81702490D01*
X115804422Y-81697103D01*
X115987037Y-81677910D01*
X116012953Y-81677910D01*
X116195565Y-81697103D01*
G37*
%TD.AperFunction*%
%TA.AperFunction,Conductor*%
G36*
X123764075Y-111217007D02*
G01*
X123730000Y-111344174D01*
X123730000Y-111475826D01*
X123764075Y-111602993D01*
X123796988Y-111660000D01*
X122123012Y-111660000D01*
X122155925Y-111602993D01*
X122190000Y-111475826D01*
X122190000Y-111344174D01*
X122155925Y-111217007D01*
X122123012Y-111160000D01*
X123796988Y-111160000D01*
X123764075Y-111217007D01*
G37*
%TD.AperFunction*%
%TA.AperFunction,Conductor*%
G36*
X123044855Y-109536546D02*
G01*
X123061575Y-109555842D01*
X123191501Y-109741396D01*
X123191506Y-109741402D01*
X123313818Y-109863714D01*
X123347303Y-109925037D01*
X123342319Y-109994729D01*
X123300447Y-110050662D01*
X123269471Y-110067577D01*
X123137912Y-110116646D01*
X123137906Y-110116649D01*
X123022812Y-110202809D01*
X123022809Y-110202812D01*
X122936649Y-110317906D01*
X122936646Y-110317911D01*
X122887385Y-110449987D01*
X122845513Y-110505920D01*
X122780049Y-110530337D01*
X122711776Y-110515485D01*
X122683522Y-110494334D01*
X122561078Y-110371890D01*
X122375405Y-110241879D01*
X122331780Y-110187302D01*
X122324588Y-110117804D01*
X122356110Y-110055449D01*
X122375406Y-110038730D01*
X122438246Y-109994729D01*
X122561401Y-109908495D01*
X122728495Y-109741401D01*
X122858425Y-109555842D01*
X122913002Y-109512217D01*
X122982500Y-109505023D01*
X123044855Y-109536546D01*
G37*
%TD.AperFunction*%
%TA.AperFunction,Conductor*%
G36*
X123044855Y-106996546D02*
G01*
X123061575Y-107015842D01*
X123191501Y-107201396D01*
X123191506Y-107201402D01*
X123358597Y-107368493D01*
X123358603Y-107368498D01*
X123544158Y-107498425D01*
X123587783Y-107553002D01*
X123594977Y-107622500D01*
X123563454Y-107684855D01*
X123544158Y-107701575D01*
X123358597Y-107831505D01*
X123191505Y-107998597D01*
X123061575Y-108184158D01*
X123006998Y-108227783D01*
X122937500Y-108234977D01*
X122875145Y-108203454D01*
X122858425Y-108184158D01*
X122728494Y-107998597D01*
X122561402Y-107831506D01*
X122561396Y-107831501D01*
X122375842Y-107701575D01*
X122332217Y-107646998D01*
X122325023Y-107577500D01*
X122356546Y-107515145D01*
X122375842Y-107498425D01*
X122419309Y-107467989D01*
X122561401Y-107368495D01*
X122728495Y-107201401D01*
X122858425Y-107015842D01*
X122913002Y-106972217D01*
X122982500Y-106965023D01*
X123044855Y-106996546D01*
G37*
%TD.AperFunction*%
%TA.AperFunction,Conductor*%
G36*
X132397382Y-102951228D02*
G01*
X132490870Y-103019151D01*
X132663792Y-103096142D01*
X132663797Y-103096144D01*
X132848954Y-103135500D01*
X132874321Y-103135500D01*
X132941360Y-103155185D01*
X132987115Y-103207989D01*
X132992252Y-103221182D01*
X133030818Y-103339877D01*
X133030821Y-103339884D01*
X133125467Y-103503816D01*
X133223317Y-103612489D01*
X133252129Y-103644488D01*
X133405265Y-103755748D01*
X133405270Y-103755751D01*
X133578192Y-103832742D01*
X133578197Y-103832744D01*
X133763354Y-103872100D01*
X133763355Y-103872100D01*
X133952644Y-103872100D01*
X133952646Y-103872100D01*
X134137803Y-103832744D01*
X134310730Y-103755751D01*
X134321802Y-103747707D01*
X134457412Y-103649182D01*
X134523219Y-103625702D01*
X134530297Y-103625500D01*
X135400798Y-103625500D01*
X135463918Y-103642767D01*
X135566810Y-103703618D01*
X135718573Y-103747709D01*
X135754037Y-103750500D01*
X136818201Y-103750499D01*
X136885239Y-103770183D01*
X136930994Y-103822987D01*
X136942200Y-103874499D01*
X136942200Y-104538051D01*
X136922515Y-104605090D01*
X136905881Y-104625732D01*
X135423433Y-106108181D01*
X135362110Y-106141666D01*
X135335752Y-106144500D01*
X135190368Y-106144500D01*
X135123329Y-106124815D01*
X135077574Y-106072011D01*
X135067047Y-106033462D01*
X135048474Y-105856744D01*
X134989979Y-105676716D01*
X134895333Y-105512784D01*
X134768671Y-105372112D01*
X134768670Y-105372111D01*
X134615534Y-105260851D01*
X134615529Y-105260848D01*
X134442607Y-105183857D01*
X134442602Y-105183855D01*
X134296801Y-105152865D01*
X134257446Y-105144500D01*
X134068154Y-105144500D01*
X134035697Y-105151398D01*
X133882997Y-105183855D01*
X133882992Y-105183857D01*
X133710070Y-105260848D01*
X133710065Y-105260851D01*
X133556929Y-105372111D01*
X133430265Y-105512785D01*
X133413110Y-105542500D01*
X133362543Y-105590716D01*
X133305723Y-105604500D01*
X131689500Y-105604500D01*
X131622461Y-105584815D01*
X131576706Y-105532011D01*
X131565500Y-105480500D01*
X131565500Y-105465452D01*
X131585185Y-105398413D01*
X131601819Y-105377771D01*
X131795735Y-105183855D01*
X132060857Y-104918734D01*
X132071012Y-104903537D01*
X132129311Y-104816286D01*
X132176463Y-104702452D01*
X132184692Y-104661082D01*
X132190913Y-104629806D01*
X132190913Y-104629802D01*
X132200500Y-104581607D01*
X132200500Y-104458394D01*
X132200500Y-104050000D01*
X135202674Y-104050000D01*
X135239043Y-104175185D01*
X135239045Y-104175191D01*
X135319426Y-104311108D01*
X135319432Y-104311116D01*
X135431083Y-104422767D01*
X135431091Y-104422773D01*
X135567011Y-104503155D01*
X135567014Y-104503156D01*
X135718646Y-104547210D01*
X135718652Y-104547211D01*
X135754081Y-104549999D01*
X135754094Y-104550000D01*
X136442200Y-104550000D01*
X136442200Y-104050000D01*
X135202674Y-104050000D01*
X132200500Y-104050000D01*
X132200500Y-103051548D01*
X132220185Y-102984509D01*
X132272989Y-102938754D01*
X132342147Y-102928810D01*
X132397382Y-102951228D01*
G37*
%TD.AperFunction*%
%TA.AperFunction,Conductor*%
G36*
X123044549Y-104456110D02*
G01*
X123061269Y-104475405D01*
X123191505Y-104661401D01*
X123191506Y-104661402D01*
X123358597Y-104828493D01*
X123358603Y-104828498D01*
X123544158Y-104958425D01*
X123587783Y-105013002D01*
X123594977Y-105082500D01*
X123563454Y-105144855D01*
X123544158Y-105161575D01*
X123358597Y-105291505D01*
X123191505Y-105458597D01*
X123061575Y-105644158D01*
X123006998Y-105687783D01*
X122937500Y-105694977D01*
X122875145Y-105663454D01*
X122858425Y-105644158D01*
X122728494Y-105458597D01*
X122561402Y-105291506D01*
X122561401Y-105291505D01*
X122375405Y-105161269D01*
X122331781Y-105106692D01*
X122324588Y-105037193D01*
X122356110Y-104974839D01*
X122375405Y-104958119D01*
X122561082Y-104828105D01*
X122728105Y-104661082D01*
X122858119Y-104475405D01*
X122912696Y-104431781D01*
X122982195Y-104424588D01*
X123044549Y-104456110D01*
G37*
%TD.AperFunction*%
%TA.AperFunction,Conductor*%
G36*
X120285612Y-101245185D02*
G01*
X120331367Y-101297989D01*
X120342101Y-101338693D01*
X120354936Y-101485402D01*
X120354938Y-101485413D01*
X120416094Y-101713655D01*
X120416096Y-101713659D01*
X120416097Y-101713663D01*
X120496004Y-101885023D01*
X120515965Y-101927830D01*
X120515967Y-101927834D01*
X120583038Y-102023620D01*
X120651501Y-102121396D01*
X120651506Y-102121402D01*
X120818597Y-102288493D01*
X120818603Y-102288498D01*
X121004594Y-102418730D01*
X121048219Y-102473307D01*
X121055413Y-102542805D01*
X121023890Y-102605160D01*
X121004595Y-102621880D01*
X120818922Y-102751890D01*
X120818920Y-102751891D01*
X120651891Y-102918920D01*
X120651886Y-102918926D01*
X120516400Y-103112420D01*
X120516399Y-103112422D01*
X120416570Y-103326507D01*
X120416567Y-103326513D01*
X120359364Y-103539999D01*
X120359364Y-103540000D01*
X121256988Y-103540000D01*
X121224075Y-103597007D01*
X121190000Y-103724174D01*
X121190000Y-103855826D01*
X121224075Y-103982993D01*
X121256988Y-104040000D01*
X120359364Y-104040000D01*
X120416567Y-104253486D01*
X120416570Y-104253492D01*
X120516399Y-104467578D01*
X120651894Y-104661082D01*
X120818917Y-104828105D01*
X121004595Y-104958119D01*
X121048219Y-105012696D01*
X121055412Y-105082195D01*
X121023890Y-105144549D01*
X121004595Y-105161269D01*
X120818594Y-105291508D01*
X120651506Y-105458597D01*
X120651502Y-105458601D01*
X120629881Y-105489480D01*
X120575303Y-105533104D01*
X120505805Y-105540296D01*
X120443450Y-105508773D01*
X120440626Y-105506036D01*
X116740198Y-101805608D01*
X116740178Y-101805586D01*
X116648736Y-101714144D01*
X116648732Y-101714141D01*
X116587443Y-101673189D01*
X116587442Y-101673188D01*
X116546290Y-101645690D01*
X116546286Y-101645688D01*
X116522549Y-101635856D01*
X116440813Y-101602000D01*
X116440810Y-101601998D01*
X116440810Y-101601999D01*
X116432454Y-101598537D01*
X116412403Y-101594549D01*
X116372029Y-101586518D01*
X116311610Y-101574500D01*
X116311607Y-101574500D01*
X116311606Y-101574500D01*
X104368773Y-101574500D01*
X104301734Y-101554815D01*
X104255979Y-101502011D01*
X104244776Y-101451362D01*
X104244074Y-101350362D01*
X104263292Y-101283187D01*
X104315777Y-101237066D01*
X104368071Y-101225500D01*
X120218573Y-101225500D01*
X120285612Y-101245185D01*
G37*
%TD.AperFunction*%
%TA.AperFunction,Conductor*%
G36*
X129564739Y-98371363D02*
G01*
X129620672Y-98413235D01*
X129639336Y-98449226D01*
X129678019Y-98568280D01*
X129678021Y-98568284D01*
X129772667Y-98732216D01*
X129893601Y-98866526D01*
X129899329Y-98872888D01*
X130052465Y-98984148D01*
X130052470Y-98984151D01*
X130225392Y-99061142D01*
X130225397Y-99061144D01*
X130410554Y-99100500D01*
X130410555Y-99100500D01*
X130599844Y-99100500D01*
X130599846Y-99100500D01*
X130785003Y-99061144D01*
X130957930Y-98984151D01*
X131111071Y-98872888D01*
X131113988Y-98869647D01*
X131116800Y-98866526D01*
X131176287Y-98829879D01*
X131208948Y-98825500D01*
X135400798Y-98825500D01*
X135463917Y-98842767D01*
X135549311Y-98893269D01*
X135596993Y-98944338D01*
X135609496Y-99013079D01*
X135582850Y-99077669D01*
X135549311Y-99106730D01*
X135463917Y-99157232D01*
X135400798Y-99174500D01*
X134414901Y-99174500D01*
X134291688Y-99174500D01*
X134244360Y-99183914D01*
X134244359Y-99183913D01*
X134170850Y-99198535D01*
X134170840Y-99198538D01*
X134057011Y-99245687D01*
X133958577Y-99311458D01*
X133958578Y-99311459D01*
X133954562Y-99314142D01*
X133954558Y-99314145D01*
X131759547Y-101509156D01*
X131698224Y-101542641D01*
X131628532Y-101537657D01*
X131584185Y-101509156D01*
X131471003Y-101395974D01*
X131470995Y-101395968D01*
X131469812Y-101395238D01*
X131469171Y-101394525D01*
X131465336Y-101391493D01*
X131465854Y-101390837D01*
X131423091Y-101343287D01*
X131411875Y-101274323D01*
X131439723Y-101210243D01*
X131465123Y-101188238D01*
X131465023Y-101188112D01*
X131467842Y-101185882D01*
X131469832Y-101184159D01*
X131470692Y-101183628D01*
X131593629Y-101060691D01*
X131684903Y-100912714D01*
X131684905Y-100912709D01*
X131739592Y-100747673D01*
X131749999Y-100645815D01*
X131750000Y-100645802D01*
X131750000Y-100602500D01*
X129350000Y-100602500D01*
X129350000Y-100645815D01*
X129360407Y-100747673D01*
X129415094Y-100912709D01*
X129415096Y-100912714D01*
X129506370Y-101060691D01*
X129629309Y-101183630D01*
X129630173Y-101184163D01*
X129630641Y-101184683D01*
X129634977Y-101188112D01*
X129634391Y-101188852D01*
X129676901Y-101236108D01*
X129688126Y-101305070D01*
X129660286Y-101369154D01*
X129634601Y-101391414D01*
X129634664Y-101391493D01*
X129632912Y-101392878D01*
X129630194Y-101395234D01*
X129629005Y-101395967D01*
X129628996Y-101395974D01*
X129505974Y-101518996D01*
X129505971Y-101519000D01*
X129414642Y-101667066D01*
X129414637Y-101667077D01*
X129359913Y-101832223D01*
X129349500Y-101934144D01*
X129349500Y-102520855D01*
X129359913Y-102622776D01*
X129414637Y-102787922D01*
X129414642Y-102787933D01*
X129505971Y-102935999D01*
X129505974Y-102936003D01*
X129628997Y-103059026D01*
X129690278Y-103096825D01*
X129737002Y-103148773D01*
X129748223Y-103217736D01*
X129731297Y-103266512D01*
X129671523Y-103365391D01*
X129671522Y-103365393D01*
X129671522Y-103365394D01*
X129660472Y-103400855D01*
X129620913Y-103527807D01*
X129614500Y-103598386D01*
X129614500Y-104111613D01*
X129620913Y-104182192D01*
X129620913Y-104182194D01*
X129620914Y-104182196D01*
X129671522Y-104344606D01*
X129732535Y-104445534D01*
X129759530Y-104490188D01*
X129861661Y-104592319D01*
X129895146Y-104653642D01*
X129890162Y-104723334D01*
X129861661Y-104767681D01*
X129786161Y-104843181D01*
X129724838Y-104876666D01*
X129698480Y-104879500D01*
X128594054Y-104879500D01*
X128527015Y-104859815D01*
X128501904Y-104838472D01*
X128492919Y-104828493D01*
X128483524Y-104818059D01*
X128483523Y-104818058D01*
X128483517Y-104818053D01*
X128330387Y-104706798D01*
X128330382Y-104706795D01*
X128157460Y-104629804D01*
X128157455Y-104629802D01*
X128011654Y-104598812D01*
X127972299Y-104590447D01*
X127783007Y-104590447D01*
X127750550Y-104597345D01*
X127597850Y-104629802D01*
X127597845Y-104629804D01*
X127424923Y-104706795D01*
X127424918Y-104706798D01*
X127271782Y-104818058D01*
X127145119Y-104958732D01*
X127050474Y-105122662D01*
X127050471Y-105122669D01*
X126991979Y-105302689D01*
X126991978Y-105302693D01*
X126987548Y-105344840D01*
X126960963Y-105409454D01*
X126903665Y-105449438D01*
X126833846Y-105452096D01*
X126776547Y-105419557D01*
X125577084Y-104220094D01*
X125543599Y-104158771D01*
X125544990Y-104100319D01*
X125565063Y-104025408D01*
X125585659Y-103790000D01*
X125565063Y-103554592D01*
X125503903Y-103326337D01*
X125404035Y-103112171D01*
X125403510Y-103111420D01*
X125268494Y-102918597D01*
X125101402Y-102751506D01*
X125101396Y-102751501D01*
X124915842Y-102621575D01*
X124872217Y-102566998D01*
X124865023Y-102497500D01*
X124896546Y-102435145D01*
X124915842Y-102418425D01*
X124975900Y-102376372D01*
X125101401Y-102288495D01*
X125268495Y-102121401D01*
X125404035Y-101927830D01*
X125503903Y-101713663D01*
X125565063Y-101485408D01*
X125585659Y-101250000D01*
X125583515Y-101225500D01*
X125579899Y-101184163D01*
X125565063Y-101014592D01*
X125510732Y-100811824D01*
X125503905Y-100786344D01*
X125503904Y-100786343D01*
X125503903Y-100786337D01*
X125404035Y-100572171D01*
X125399298Y-100565405D01*
X125268494Y-100378597D01*
X125101402Y-100211506D01*
X125101396Y-100211501D01*
X124945726Y-100102500D01*
X129350000Y-100102500D01*
X130300000Y-100102500D01*
X130300000Y-99365000D01*
X130800000Y-99365000D01*
X130800000Y-100102500D01*
X131750000Y-100102500D01*
X131750000Y-100059197D01*
X131749999Y-100059184D01*
X131739592Y-99957326D01*
X131684905Y-99792290D01*
X131684903Y-99792285D01*
X131593629Y-99644308D01*
X131470691Y-99521370D01*
X131322714Y-99430096D01*
X131322709Y-99430094D01*
X131157673Y-99375407D01*
X131055815Y-99365000D01*
X130800000Y-99365000D01*
X130300000Y-99365000D01*
X130044184Y-99365000D01*
X129942326Y-99375407D01*
X129777290Y-99430094D01*
X129777285Y-99430096D01*
X129629308Y-99521370D01*
X129506370Y-99644308D01*
X129415096Y-99792285D01*
X129415094Y-99792290D01*
X129360407Y-99957326D01*
X129350000Y-100059184D01*
X129350000Y-100102500D01*
X124945726Y-100102500D01*
X124915842Y-100081575D01*
X124872217Y-100026998D01*
X124865023Y-99957500D01*
X124896546Y-99895145D01*
X124915842Y-99878425D01*
X125014531Y-99809322D01*
X125101401Y-99748495D01*
X125268495Y-99581401D01*
X125403652Y-99388377D01*
X125458229Y-99344752D01*
X125505227Y-99335500D01*
X128300607Y-99335500D01*
X128361029Y-99323481D01*
X128421452Y-99311463D01*
X128421455Y-99311461D01*
X128421458Y-99311461D01*
X128454787Y-99297654D01*
X128454786Y-99297654D01*
X128454792Y-99297652D01*
X128535286Y-99264312D01*
X128590976Y-99227100D01*
X128637733Y-99195858D01*
X128724858Y-99108733D01*
X128724858Y-99108731D01*
X128735066Y-99098524D01*
X128735067Y-99098521D01*
X129433727Y-98399861D01*
X129495047Y-98366379D01*
X129564739Y-98371363D01*
G37*
%TD.AperFunction*%
%TA.AperFunction,Conductor*%
G36*
X138352241Y-97523156D02*
G01*
X138400517Y-97553047D01*
X139043076Y-98195606D01*
X139043105Y-98195637D01*
X139133323Y-98285855D01*
X139133327Y-98285858D01*
X139202255Y-98331914D01*
X139235775Y-98354312D01*
X139289034Y-98376372D01*
X139289035Y-98376373D01*
X139289036Y-98376373D01*
X139349608Y-98401463D01*
X139401763Y-98411837D01*
X139470451Y-98425499D01*
X139470452Y-98425500D01*
X139470453Y-98425500D01*
X139470454Y-98425500D01*
X141466264Y-98425500D01*
X141533303Y-98445185D01*
X141579058Y-98497989D01*
X141589584Y-98536536D01*
X141608326Y-98714856D01*
X141621146Y-98754311D01*
X141666818Y-98894877D01*
X141666821Y-98894884D01*
X141761467Y-99058816D01*
X141863185Y-99171785D01*
X141888129Y-99199488D01*
X142041265Y-99310748D01*
X142041267Y-99310749D01*
X142041270Y-99310751D01*
X142100722Y-99337221D01*
X142153958Y-99382472D01*
X142174279Y-99449321D01*
X142155233Y-99516544D01*
X142102867Y-99562799D01*
X142050285Y-99574500D01*
X141566917Y-99574500D01*
X141499878Y-99554815D01*
X141474768Y-99533473D01*
X141448871Y-99504712D01*
X141448864Y-99504706D01*
X141295734Y-99393451D01*
X141295729Y-99393448D01*
X141122807Y-99316457D01*
X141122802Y-99316455D01*
X140977001Y-99285465D01*
X140937646Y-99277100D01*
X140748354Y-99277100D01*
X140715897Y-99283998D01*
X140563197Y-99316455D01*
X140563192Y-99316457D01*
X140390270Y-99393448D01*
X140390265Y-99393451D01*
X140237129Y-99504711D01*
X140110466Y-99645385D01*
X140015821Y-99809315D01*
X140015818Y-99809322D01*
X139957707Y-99988170D01*
X139957326Y-99989344D01*
X139937540Y-100177600D01*
X139941103Y-100211505D01*
X139943895Y-100238063D01*
X139931325Y-100306793D01*
X139883593Y-100357816D01*
X139837855Y-100372754D01*
X139837966Y-100373312D01*
X139833313Y-100374237D01*
X139832736Y-100374426D01*
X139832001Y-100374498D01*
X139811385Y-100378599D01*
X139811384Y-100378598D01*
X139711155Y-100398535D01*
X139711141Y-100398539D01*
X139679038Y-100411837D01*
X139597318Y-100445685D01*
X139597314Y-100445687D01*
X139563802Y-100468081D01*
X139563800Y-100468082D01*
X139494867Y-100514141D01*
X139490157Y-100518007D01*
X139488559Y-100516060D01*
X139436904Y-100544266D01*
X139410546Y-100547100D01*
X139351354Y-100547100D01*
X139318897Y-100553998D01*
X139166197Y-100586455D01*
X139166192Y-100586457D01*
X138993270Y-100663448D01*
X138993265Y-100663451D01*
X138840129Y-100774711D01*
X138713466Y-100915385D01*
X138618821Y-101079315D01*
X138618818Y-101079322D01*
X138563390Y-101249913D01*
X138560326Y-101259344D01*
X138540540Y-101447600D01*
X138560326Y-101635856D01*
X138560327Y-101635859D01*
X138618818Y-101815877D01*
X138618821Y-101815884D01*
X138713467Y-101979816D01*
X138840129Y-102120488D01*
X138993265Y-102231748D01*
X138993267Y-102231749D01*
X138993270Y-102231751D01*
X139040589Y-102252819D01*
X139093824Y-102298067D01*
X139114146Y-102364916D01*
X139095101Y-102432140D01*
X139077833Y-102453778D01*
X138404380Y-103127230D01*
X138343057Y-103160715D01*
X138273365Y-103155731D01*
X138217432Y-103113859D01*
X138193015Y-103048395D01*
X138192699Y-103039565D01*
X138192699Y-102811838D01*
X138189909Y-102776373D01*
X138148719Y-102634595D01*
X138148719Y-102565405D01*
X138189907Y-102423633D01*
X138189909Y-102423627D01*
X138192700Y-102388163D01*
X138192699Y-102011838D01*
X138189909Y-101976373D01*
X138148458Y-101833696D01*
X138148458Y-101764508D01*
X138181725Y-101650000D01*
X138078152Y-101650000D01*
X138011113Y-101630315D01*
X137990470Y-101613680D01*
X137953625Y-101576834D01*
X137953617Y-101576828D01*
X137916395Y-101554815D01*
X137835088Y-101506730D01*
X137787407Y-101455663D01*
X137774903Y-101386922D01*
X137801548Y-101322332D01*
X137835088Y-101293269D01*
X137953620Y-101223170D01*
X137990470Y-101186320D01*
X138051792Y-101152834D01*
X138078152Y-101150000D01*
X138181726Y-101150000D01*
X138181725Y-101149999D01*
X138148458Y-101035492D01*
X138148458Y-100966302D01*
X138164028Y-100912709D01*
X138189909Y-100823627D01*
X138192700Y-100788163D01*
X138192699Y-100411838D01*
X138189909Y-100376373D01*
X138153997Y-100252765D01*
X138148719Y-100234595D01*
X138148719Y-100165405D01*
X138186109Y-100036706D01*
X138189909Y-100023627D01*
X138192700Y-99988163D01*
X138192699Y-99611838D01*
X138189909Y-99576373D01*
X138148458Y-99433696D01*
X138148458Y-99364508D01*
X138181725Y-99250000D01*
X138078152Y-99250000D01*
X138011113Y-99230315D01*
X137990470Y-99213680D01*
X137953625Y-99176834D01*
X137953617Y-99176828D01*
X137911804Y-99152100D01*
X137835088Y-99106730D01*
X137787407Y-99055663D01*
X137774903Y-98986922D01*
X137801548Y-98922332D01*
X137835088Y-98893269D01*
X137953620Y-98823170D01*
X137990470Y-98786320D01*
X138051792Y-98752834D01*
X138078152Y-98750000D01*
X138181726Y-98750000D01*
X138181725Y-98749999D01*
X138148458Y-98635492D01*
X138148458Y-98566302D01*
X138157105Y-98536539D01*
X138189909Y-98423627D01*
X138192700Y-98388163D01*
X138192699Y-98011838D01*
X138189909Y-97976373D01*
X138148719Y-97834595D01*
X138148719Y-97765405D01*
X138189906Y-97623636D01*
X138189909Y-97623627D01*
X138189910Y-97623613D01*
X138190852Y-97618457D01*
X138222258Y-97556043D01*
X138282421Y-97520516D01*
X138352241Y-97523156D01*
G37*
%TD.AperFunction*%
%TA.AperFunction,Conductor*%
G36*
X123044855Y-101916546D02*
G01*
X123061575Y-101935842D01*
X123191501Y-102121396D01*
X123191506Y-102121402D01*
X123358597Y-102288493D01*
X123358603Y-102288498D01*
X123544158Y-102418425D01*
X123587783Y-102473002D01*
X123594977Y-102542500D01*
X123563454Y-102604855D01*
X123544158Y-102621575D01*
X123358597Y-102751505D01*
X123191508Y-102918594D01*
X123061269Y-103104595D01*
X123006692Y-103148219D01*
X122937193Y-103155412D01*
X122874839Y-103123890D01*
X122858119Y-103104594D01*
X122728113Y-102918926D01*
X122728108Y-102918920D01*
X122561078Y-102751890D01*
X122375405Y-102621879D01*
X122331780Y-102567302D01*
X122324588Y-102497804D01*
X122356110Y-102435449D01*
X122375406Y-102418730D01*
X122435898Y-102376373D01*
X122561401Y-102288495D01*
X122728495Y-102121401D01*
X122858425Y-101935842D01*
X122913002Y-101892217D01*
X122982500Y-101885023D01*
X123044855Y-101916546D01*
G37*
%TD.AperFunction*%
%TA.AperFunction,Conductor*%
G36*
X123044855Y-99376546D02*
G01*
X123061575Y-99395842D01*
X123191501Y-99581396D01*
X123191506Y-99581402D01*
X123358597Y-99748493D01*
X123358603Y-99748498D01*
X123544158Y-99878425D01*
X123587783Y-99933002D01*
X123594977Y-100002500D01*
X123563454Y-100064855D01*
X123544158Y-100081575D01*
X123358597Y-100211505D01*
X123191505Y-100378597D01*
X123061575Y-100564158D01*
X123006998Y-100607783D01*
X122937500Y-100614977D01*
X122875145Y-100583454D01*
X122858425Y-100564158D01*
X122728494Y-100378597D01*
X122561402Y-100211506D01*
X122561401Y-100211505D01*
X122472850Y-100149501D01*
X122375839Y-100081573D01*
X122332216Y-100026997D01*
X122325023Y-99957498D01*
X122356545Y-99895144D01*
X122375831Y-99878432D01*
X122561401Y-99748495D01*
X122728495Y-99581401D01*
X122858425Y-99395842D01*
X122913002Y-99352217D01*
X122982500Y-99345023D01*
X123044855Y-99376546D01*
G37*
%TD.AperFunction*%
%TA.AperFunction,Conductor*%
G36*
X121224075Y-95977007D02*
G01*
X121190000Y-96104174D01*
X121190000Y-96235826D01*
X121224075Y-96362993D01*
X121256988Y-96420000D01*
X120359364Y-96420000D01*
X120416567Y-96633486D01*
X120416570Y-96633492D01*
X120516399Y-96847578D01*
X120651894Y-97041082D01*
X120818917Y-97208105D01*
X121004595Y-97338119D01*
X121048219Y-97392696D01*
X121055412Y-97462195D01*
X121023890Y-97524549D01*
X121004595Y-97541269D01*
X120818594Y-97671508D01*
X120651505Y-97838597D01*
X120515965Y-98032169D01*
X120515964Y-98032171D01*
X120416098Y-98246335D01*
X120416094Y-98246344D01*
X120354938Y-98474586D01*
X120354936Y-98474596D01*
X120334341Y-98709999D01*
X120334341Y-98710000D01*
X120354936Y-98945403D01*
X120354938Y-98945413D01*
X120374497Y-99018407D01*
X120372834Y-99088257D01*
X120333671Y-99146119D01*
X120269443Y-99173623D01*
X120254722Y-99174500D01*
X104352090Y-99174500D01*
X104285051Y-99154815D01*
X104239296Y-99102011D01*
X104228093Y-99051362D01*
X104227391Y-98950362D01*
X104246609Y-98883187D01*
X104299094Y-98837066D01*
X104351388Y-98825500D01*
X117181608Y-98825500D01*
X117181608Y-98825499D01*
X117266867Y-98808541D01*
X117266868Y-98808541D01*
X117278836Y-98806160D01*
X117302452Y-98801463D01*
X117352496Y-98780734D01*
X117416286Y-98754312D01*
X117475334Y-98714856D01*
X117518733Y-98685858D01*
X117605858Y-98598733D01*
X117605859Y-98598731D01*
X117612925Y-98591665D01*
X117612928Y-98591661D01*
X120248271Y-95956317D01*
X120309592Y-95922834D01*
X120335950Y-95920000D01*
X121256988Y-95920000D01*
X121224075Y-95977007D01*
G37*
%TD.AperFunction*%
%TA.AperFunction,Conductor*%
G36*
X146568587Y-93431385D02*
G01*
X146589229Y-93448019D01*
X146988381Y-93847171D01*
X147021866Y-93908494D01*
X147024700Y-93934852D01*
X147024700Y-98317748D01*
X147005015Y-98384787D01*
X146988381Y-98405429D01*
X146655629Y-98738181D01*
X146594306Y-98771666D01*
X146567948Y-98774500D01*
X146516700Y-98774500D01*
X146449661Y-98754815D01*
X146403906Y-98702011D01*
X146392700Y-98650501D01*
X146392699Y-98411849D01*
X146392698Y-98411836D01*
X146389909Y-98376373D01*
X146389909Y-98376371D01*
X146348719Y-98234595D01*
X146348719Y-98165405D01*
X146373047Y-98081666D01*
X146389909Y-98023627D01*
X146392700Y-97988163D01*
X146392699Y-97611838D01*
X146389909Y-97576373D01*
X146348719Y-97434595D01*
X146348719Y-97365405D01*
X146389907Y-97223633D01*
X146389909Y-97223627D01*
X146392700Y-97188163D01*
X146392699Y-96811838D01*
X146389909Y-96776373D01*
X146348458Y-96633696D01*
X146348458Y-96564508D01*
X146381725Y-96450000D01*
X146278152Y-96450000D01*
X146211113Y-96430315D01*
X146190470Y-96413680D01*
X146153625Y-96376834D01*
X146153616Y-96376827D01*
X146017590Y-96296382D01*
X146017585Y-96296380D01*
X145865833Y-96252292D01*
X145865820Y-96252290D01*
X145830363Y-96249500D01*
X143954049Y-96249500D01*
X143954024Y-96249501D01*
X143918572Y-96252291D01*
X143766814Y-96296380D01*
X143766809Y-96296382D01*
X143697207Y-96337544D01*
X143668006Y-96354815D01*
X143663919Y-96357232D01*
X143600798Y-96374500D01*
X141259854Y-96374500D01*
X141192815Y-96354815D01*
X141147060Y-96302011D01*
X141137116Y-96232853D01*
X141166141Y-96169297D01*
X141212401Y-96135939D01*
X141277956Y-96108785D01*
X141445918Y-95996557D01*
X141492475Y-95950000D01*
X143402674Y-95950000D01*
X144642200Y-95950000D01*
X144642200Y-95450000D01*
X145142200Y-95450000D01*
X145142200Y-95950000D01*
X146381726Y-95950000D01*
X146381725Y-95949999D01*
X146345356Y-95824814D01*
X146345354Y-95824808D01*
X146264973Y-95688891D01*
X146264967Y-95688883D01*
X146153316Y-95577232D01*
X146153308Y-95577226D01*
X146017388Y-95496844D01*
X146017385Y-95496843D01*
X145865753Y-95452789D01*
X145865747Y-95452788D01*
X145830318Y-95450000D01*
X145142200Y-95450000D01*
X144642200Y-95450000D01*
X143954081Y-95450000D01*
X143918652Y-95452788D01*
X143918646Y-95452789D01*
X143767014Y-95496843D01*
X143767011Y-95496844D01*
X143631091Y-95577226D01*
X143631083Y-95577232D01*
X143519432Y-95688883D01*
X143519426Y-95688891D01*
X143439045Y-95824808D01*
X143439043Y-95824814D01*
X143402674Y-95949999D01*
X143402674Y-95950000D01*
X141492475Y-95950000D01*
X141588758Y-95853717D01*
X141700986Y-95685755D01*
X141778291Y-95499126D01*
X141817700Y-95301002D01*
X141817700Y-95098996D01*
X141778291Y-94900872D01*
X141700986Y-94714243D01*
X141700984Y-94714240D01*
X141700982Y-94714236D01*
X141588758Y-94546280D01*
X141445918Y-94403440D01*
X141277962Y-94291216D01*
X141277952Y-94291211D01*
X141091327Y-94213908D01*
X141091319Y-94213906D01*
X140893207Y-94174499D01*
X140893203Y-94174499D01*
X140691197Y-94174499D01*
X140691192Y-94174499D01*
X140493080Y-94213906D01*
X140493072Y-94213908D01*
X140306447Y-94291211D01*
X140306437Y-94291216D01*
X140138481Y-94403440D01*
X139995641Y-94546280D01*
X139883417Y-94714236D01*
X139883412Y-94714246D01*
X139806109Y-94900871D01*
X139806107Y-94900879D01*
X139766700Y-95098991D01*
X139766700Y-95301006D01*
X139806107Y-95499118D01*
X139806109Y-95499126D01*
X139883412Y-95685751D01*
X139883417Y-95685761D01*
X139995641Y-95853717D01*
X140138481Y-95996557D01*
X140306437Y-96108781D01*
X140306446Y-96108786D01*
X140371999Y-96135939D01*
X140426402Y-96179780D01*
X140448467Y-96246074D01*
X140431188Y-96313774D01*
X140380050Y-96361384D01*
X140324546Y-96374500D01*
X139678909Y-96374500D01*
X139611870Y-96354815D01*
X139591228Y-96338181D01*
X138237902Y-94984855D01*
X136876426Y-93623380D01*
X136842942Y-93562058D01*
X136847926Y-93492366D01*
X136889798Y-93436433D01*
X136955262Y-93412016D01*
X136964108Y-93411700D01*
X146501548Y-93411700D01*
X146568587Y-93431385D01*
G37*
%TD.AperFunction*%
%TA.AperFunction,Conductor*%
G36*
X123044549Y-96836110D02*
G01*
X123061269Y-96855405D01*
X123191505Y-97041401D01*
X123191506Y-97041402D01*
X123358597Y-97208493D01*
X123358603Y-97208498D01*
X123544158Y-97338425D01*
X123587783Y-97393002D01*
X123594977Y-97462500D01*
X123563454Y-97524855D01*
X123544158Y-97541575D01*
X123358597Y-97671505D01*
X123191505Y-97838597D01*
X123061575Y-98024158D01*
X123006998Y-98067783D01*
X122937500Y-98074977D01*
X122875145Y-98043454D01*
X122858425Y-98024158D01*
X122728494Y-97838597D01*
X122561402Y-97671506D01*
X122561401Y-97671505D01*
X122375405Y-97541269D01*
X122331781Y-97486692D01*
X122324588Y-97417193D01*
X122356110Y-97354839D01*
X122375405Y-97338119D01*
X122561082Y-97208105D01*
X122728105Y-97041082D01*
X122858119Y-96855405D01*
X122912696Y-96811781D01*
X122982195Y-96804588D01*
X123044549Y-96836110D01*
G37*
%TD.AperFunction*%
%TA.AperFunction,Conductor*%
G36*
X123044855Y-94296546D02*
G01*
X123061575Y-94315842D01*
X123191501Y-94501396D01*
X123191506Y-94501402D01*
X123358597Y-94668493D01*
X123358603Y-94668498D01*
X123544158Y-94798425D01*
X123587783Y-94853002D01*
X123594977Y-94922500D01*
X123563454Y-94984855D01*
X123544158Y-95001575D01*
X123358597Y-95131505D01*
X123191508Y-95298594D01*
X123061269Y-95484595D01*
X123006692Y-95528219D01*
X122937193Y-95535412D01*
X122874839Y-95503890D01*
X122858119Y-95484594D01*
X122728113Y-95298926D01*
X122728108Y-95298920D01*
X122561078Y-95131890D01*
X122375405Y-95001879D01*
X122331780Y-94947302D01*
X122324588Y-94877804D01*
X122356110Y-94815449D01*
X122375406Y-94798730D01*
X122404122Y-94778623D01*
X122561401Y-94668495D01*
X122728495Y-94501401D01*
X122858425Y-94315842D01*
X122913002Y-94272217D01*
X122982500Y-94265023D01*
X123044855Y-94296546D01*
G37*
%TD.AperFunction*%
%TA.AperFunction,Conductor*%
G36*
X123044855Y-91756546D02*
G01*
X123061575Y-91775842D01*
X123191501Y-91961396D01*
X123191506Y-91961402D01*
X123358597Y-92128493D01*
X123358603Y-92128498D01*
X123544158Y-92258425D01*
X123587783Y-92313002D01*
X123594977Y-92382500D01*
X123563454Y-92444855D01*
X123544158Y-92461575D01*
X123358597Y-92591505D01*
X123191505Y-92758597D01*
X123061575Y-92944158D01*
X123006998Y-92987783D01*
X122937500Y-92994977D01*
X122875145Y-92963454D01*
X122858425Y-92944158D01*
X122728494Y-92758597D01*
X122561402Y-92591506D01*
X122561396Y-92591501D01*
X122375842Y-92461575D01*
X122332217Y-92406998D01*
X122325023Y-92337500D01*
X122356546Y-92275145D01*
X122375842Y-92258425D01*
X122433443Y-92218092D01*
X122561401Y-92128495D01*
X122728495Y-91961401D01*
X122858425Y-91775842D01*
X122913002Y-91732217D01*
X122982500Y-91725023D01*
X123044855Y-91756546D01*
G37*
%TD.AperFunction*%
%TA.AperFunction,Conductor*%
G36*
X123044855Y-89215673D02*
G01*
X123061575Y-89234968D01*
X123191894Y-89421082D01*
X123358917Y-89588105D01*
X123544595Y-89718119D01*
X123588219Y-89772696D01*
X123595412Y-89842195D01*
X123563890Y-89904549D01*
X123544595Y-89921269D01*
X123358594Y-90051508D01*
X123191505Y-90218597D01*
X123061575Y-90404158D01*
X123006998Y-90447783D01*
X122937500Y-90454977D01*
X122875145Y-90423454D01*
X122858425Y-90404158D01*
X122728494Y-90218597D01*
X122561402Y-90051506D01*
X122561401Y-90051505D01*
X122375405Y-89921269D01*
X122331781Y-89866692D01*
X122324588Y-89797193D01*
X122356110Y-89734839D01*
X122375405Y-89718119D01*
X122561082Y-89588105D01*
X122728105Y-89421082D01*
X122858425Y-89234968D01*
X122913002Y-89191344D01*
X122982501Y-89184151D01*
X123044855Y-89215673D01*
G37*
%TD.AperFunction*%
%TA.AperFunction,Conductor*%
G36*
X123764075Y-88357007D02*
G01*
X123730000Y-88484174D01*
X123730000Y-88615826D01*
X123764075Y-88742993D01*
X123796988Y-88800000D01*
X122123012Y-88800000D01*
X122155925Y-88742993D01*
X122190000Y-88615826D01*
X122190000Y-88484174D01*
X122155925Y-88357007D01*
X122123012Y-88300000D01*
X123796988Y-88300000D01*
X123764075Y-88357007D01*
G37*
%TD.AperFunction*%
%TD*%
D24*
X144907000Y-94513400D03*
X106250000Y-105500000D03*
X106250000Y-94250000D03*
X144932400Y-91313000D03*
X128854200Y-107797600D03*
X134162800Y-106045000D03*
X139446000Y-101447600D03*
X140843000Y-100177600D03*
X142494000Y-98526600D03*
X132486400Y-96621600D03*
X127830153Y-93632447D03*
X134950200Y-93497400D03*
X131673600Y-97400000D03*
X130505200Y-98200000D03*
X127877653Y-105490947D03*
X132943600Y-102235000D03*
X133858000Y-102971600D03*
X140792200Y-104800001D03*
X140792200Y-95199999D03*
X110850000Y-87500000D03*
X111333274Y-86333274D03*
X111333274Y-88666726D03*
X112500000Y-85850000D03*
X112500000Y-87500000D03*
X112500000Y-89150000D03*
X113666726Y-86333274D03*
X113666726Y-88666726D03*
X114150000Y-87500000D03*
X124230000Y-111410000D03*
X121690000Y-111410000D03*
X124230000Y-108870000D03*
X121690000Y-108870000D03*
X124230000Y-106330000D03*
X121690000Y-106330000D03*
X124230000Y-103790000D03*
X121690000Y-103790000D03*
X124230000Y-101250000D03*
X121690000Y-101250000D03*
X124230000Y-98710000D03*
X121690000Y-98710000D03*
X124230000Y-96170000D03*
X121690000Y-96170000D03*
X124230000Y-93630000D03*
X121690000Y-93630000D03*
X124230000Y-91090000D03*
X121690000Y-91090000D03*
X124230000Y-88550000D03*
X121690000Y-88550000D03*
X110850000Y-112500000D03*
X111333274Y-111333274D03*
X111333274Y-113666726D03*
X112500000Y-110850000D03*
X112500000Y-112500000D03*
X112500000Y-114150000D03*
X113666726Y-111333274D03*
X113666726Y-113666726D03*
X114150000Y-112500000D03*
M02*
